<?xml version="1.0" encoding="UTF-8" standalone="no"?>
<!DOCTYPE svg PUBLIC "-//W3C//DTD SVG 1.1//EN" "http://www.w3.org/Graphics/SVG/1.1/DTD/svg11.dtd">
<svg width="100%" height="100%" viewBox="0 0 1000 1000" version="1.1" xmlns="http://www.w3.org/2000/svg" xmlns:xlink="http://www.w3.org/1999/xlink" xml:space="preserve" xmlns:serif="http://www.serif.com/" style="fill-rule:evenodd;clip-rule:evenodd;stroke-linejoin:round;stroke-miterlimit:2;">
    <g transform="matrix(7.05557,0,0,7.05557,819.646,906.822)">
        <path d="M0,-122.757C-0.26,-122.468 -0.521,-122.179 -0.781,-121.963C1.951,-122.035 4.683,-122.107 7.415,-122.252C7.48,-121.746 7.545,-121.313 7.545,-120.88C9.562,-121.024 11.513,-121.169 13.464,-121.313C13.529,-120.807 13.594,-120.374 13.594,-119.941C15.61,-120.013 17.562,-120.157 19.513,-120.302C19.318,-118.641 19.318,-118.641 18.798,-118.135C21.27,-118.135 22.635,-118.135 24.327,-118.858C24.262,-118.135 24.196,-117.414 24.066,-116.764C23.286,-116.764 23.026,-117.125 21.985,-116.908C21.985,-112.142 21.985,-107.448 21.92,-102.755C21.14,-102.683 20.359,-102.611 19.513,-102.538C19.448,-106.582 19.383,-110.626 19.318,-114.742C18.928,-114.236 18.928,-114.236 19.123,-102.538C18.342,-102.611 17.562,-102.683 16.781,-102.755C16.651,-106.149 16.521,-109.543 16.326,-112.937C16.261,-109.47 16.196,-106.005 16.066,-102.538L13.464,-102.538C13.399,-104.849 13.334,-107.232 13.269,-109.615C13.204,-107.737 13.139,-105.86 13.009,-103.983C11.383,-103.188 11.383,-103.188 8.391,-102.827C8.456,-102.033 8.521,-101.238 8.586,-100.516C10.277,-100.227 10.277,-100.227 25.302,-101.022C25.367,-100.516 25.432,-100.083 25.562,-99.65C20.034,-99.433 14.44,-99.216 8.846,-99C8.716,-98.278 8.586,-97.628 8.456,-96.978C8,-96.906 7.48,-96.834 6.959,-96.761C6.895,-97.484 6.83,-98.206 6.764,-99C6.7,-97.772 6.634,-96.545 6.504,-95.317C5.528,-95.606 4.553,-95.895 3.512,-96.256C2.992,-99.939 -0.716,-98.928 -4.163,-99C-7.155,-93.801 -9.171,-96.545 -14.31,-97.7C-13.985,-99.794 -13.985,-99.794 -14.44,-100.95C-14.57,-99.65 -14.7,-98.423 -14.896,-97.195C-14.96,-97.484 -15.09,-97.772 -15.221,-98.061L-16.782,-98.061C-16.847,-97.556 -16.977,-97.05 -17.107,-96.545C-17.562,-96.401 -18.083,-96.328 -18.603,-96.256C-18.668,-96.617 -18.733,-96.978 -18.863,-97.411C-21.335,-96.761 -22.571,-96.401 -25.562,-96.761C-25.758,-97.123 -25.953,-97.484 -26.148,-97.917C-26.213,-97.628 -26.278,-97.411 -26.408,-97.195L-27.709,-97.195C-27.839,-97.772 -28.035,-98.35 -28.229,-99L-28.88,-99C-29.27,-97.484 -29.27,-97.484 -29.921,-96.906C-30.896,-97.267 -30.896,-97.989 -33.303,-98.35C-36.88,-93.368 -39.092,-94.739 -44.426,-97.411C-50.345,-93.151 -57.435,-91.345 -64.134,-94.306C-64.199,-94.523 -64.264,-94.739 -64.394,-95.028C-64.85,-94.379 -65.305,-93.729 -65.826,-93.079C-69.208,-93.223 -72.59,-93.368 -76.037,-93.512C-76.232,-92.068 -76.428,-90.624 -76.623,-89.179C-77.143,-89.685 -77.664,-90.19 -78.184,-90.696C-78.119,-89.974 -78.054,-89.252 -78.054,-88.529C-78.77,-88.89 -79.55,-89.252 -80.33,-89.685C-81.176,-89.324 -81.827,-88.819 -82.151,-87.88C-82.737,-87.735 -83.322,-87.591 -83.973,-87.446L-83.973,-86.219C-82.997,-85.785 -82.021,-85.424 -81.111,-85.064C-83.647,-83.908 -84.428,-82.897 -84.688,-83.114C-85.404,-80.153 -86.185,-77.265 -86.965,-74.376C-88.005,-74.015 -89.567,-73.654 -90.087,-72.426C-89.111,-71.849 -88.721,-70.838 -88.005,-70.766C-88.135,-67.878 -88.266,-64.989 -88.461,-62.101L-90.607,-62.101L-90.802,-65.783C-90.868,-63.256 -90.933,-60.729 -91.063,-58.201C-91.583,-58.129 -92.104,-58.057 -92.624,-58.057C-92.559,-57.696 -92.494,-57.335 -92.494,-56.974C-92.298,-57.118 -92.104,-57.263 -91.908,-57.479C-90.607,-57.191 -89.307,-56.974 -88.005,-56.757L-88.005,-55.313C-88.721,-55.169 -89.111,-54.157 -90.477,-53.724C-89.762,-48.02 -88.461,-42.965 -90.802,-38.127C-90.347,-36.611 -90.347,-36.611 -90.412,-31.989C-90.933,-31.484 -91.518,-30.978 -92.104,-30.545C-91.063,-29.823 -90.022,-29.101 -89.046,-28.379C-89.046,-25.057 -88.396,-24.262 -91.323,-23.396C-91.323,-23.107 -91.388,-22.819 -91.453,-22.602C-91.843,-22.529 -92.233,-22.458 -92.624,-22.458C-92.624,-20.58 -92.689,-18.702 -92.754,-16.825C-93.534,-16.175 -94.315,-15.526 -95.095,-14.876C-95.03,-13.864 -94.965,-12.926 -94.965,-11.987C-97.502,-11.698 -97.502,-11.698 -97.697,-11.337C-96.917,-11.193 -96.136,-11.12 -95.355,-11.049C-95.486,-6.21 -95.486,-6.21 -95.811,-5.271C-96.461,-5.127 -97.112,-5.055 -97.827,-4.983C-96.981,-4.91 -96.136,-4.838 -95.355,-4.766C-95.486,-3.755 -95.616,-2.816 -95.811,-1.878C-97.893,-2.094 -97.893,-2.094 -99.128,-1.733C-99.323,-1.155 -99.518,-0.578 -99.713,0C-100.624,-0.217 -101.6,-0.506 -102.576,-0.795C-102.511,-1.083 -102.445,-1.372 -102.38,-1.733C-103.941,-1.733 -105.502,-1.805 -107.063,-1.878L-107.063,-4.333C-106.088,-4.333 -105.112,-4.333 -104.137,-4.405C-104.137,-4.549 -104.202,-4.766 -104.267,-4.983C-105.177,-5.055 -106.088,-5.127 -107.063,-5.271C-106.934,-6.066 -106.803,-6.86 -106.673,-7.654C-105.828,-7.727 -104.982,-7.799 -104.137,-7.871C-104.982,-7.944 -105.828,-8.015 -106.673,-8.16C-106.543,-8.954 -106.413,-9.82 -106.348,-10.687C-104.917,-10.759 -104.917,-10.759 -104.137,-11.265C-104.982,-11.337 -105.828,-11.409 -106.673,-11.554L-106.673,-13.937C-105.828,-13.937 -104.982,-13.937 -104.137,-14.009C-104.137,-14.153 -104.202,-14.37 -104.267,-14.587C-105.568,-14.948 -106.869,-15.308 -108.169,-15.742C-108.234,-16.247 -108.299,-16.753 -108.364,-17.331C-107.519,-17.547 -106.673,-17.764 -105.893,-17.981C-106.543,-18.053 -107.259,-18.125 -107.975,-18.269L-107.975,-20.652C-107.259,-20.652 -106.543,-20.724 -105.893,-20.797L-105.893,-21.519L-107.063,-21.302C-107.194,-22.169 -107.389,-23.035 -107.584,-23.902L-108.234,-23.902C-108.364,-23.541 -108.495,-23.179 -108.625,-22.891C-108.95,-22.746 -109.275,-22.674 -109.666,-22.602C-109.145,-29.678 -112.007,-25.274 -114.154,-30.111C-114.088,-31.773 -114.023,-33.506 -114.023,-35.238C-114.349,-35.455 -114.674,-35.672 -114.999,-35.888C-114.999,-36.538 -115.064,-37.26 -115.129,-37.983C-114.739,-38.199 -114.349,-38.488 -114.023,-38.777C-112.202,-37.694 -111.877,-36.827 -111.552,-35.528C-109.73,-34.878 -110.381,-35.816 -110.121,-37.044C-109.666,-37.116 -109.275,-37.188 -108.885,-37.26C-109.535,-37.333 -110.251,-37.405 -110.966,-37.549C-110.836,-38.705 -110.771,-39.86 -110.706,-41.015C-109.926,-41.16 -109.21,-41.377 -108.495,-41.593C-109.275,-41.665 -110.121,-41.737 -110.966,-41.882L-110.966,-43.759C-110.576,-43.832 -110.186,-43.904 -109.795,-43.976C-110.186,-44.048 -110.576,-44.12 -110.966,-44.265C-110.966,-44.987 -111.031,-45.709 -111.097,-46.503C-111.357,-46.503 -111.617,-46.575 -111.877,-46.648C-112.007,-48.236 -112.137,-49.825 -112.267,-51.486C-110.121,-51.558 -107.975,-51.631 -105.893,-51.702C-108.82,-52.136 -108.82,-52.136 -113.178,-51.991C-113.828,-54.374 -113.828,-54.374 -114.023,-58.707C-110.511,-58.49 -107.063,-58.346 -103.616,-58.201C-103.486,-57.912 -103.356,-57.624 -103.291,-57.335C-103.291,-57.912 -103.356,-58.49 -103.421,-59.14C-106.934,-59.14 -110.446,-59.14 -114.023,-59.213C-113.894,-60.007 -113.763,-60.873 -113.698,-61.74C-111.227,-61.884 -108.755,-62.028 -106.283,-62.245C-108.885,-62.389 -111.487,-62.606 -114.154,-62.823C-114.218,-63.834 -114.349,-64.844 -114.479,-65.928C-113.958,-66.072 -113.438,-66.217 -112.917,-66.433C-113.048,-68.022 -113.178,-69.611 -113.373,-71.199C-113.828,-71.343 -114.349,-71.488 -114.869,-71.705L-114.869,-88.529C-114.349,-88.819 -113.828,-89.107 -113.373,-89.468C-113.763,-89.757 -113.763,-89.757 -115.324,-89.541C-115.584,-90.768 -115.845,-92.068 -116.17,-93.368C-115.91,-93.368 -115.649,-93.368 -115.389,-93.44C-115.389,-95.606 -115.845,-96.545 -114.543,-98.856C-114.804,-98.928 -115.064,-99 -115.324,-99.144C-115.584,-103.694 -113.308,-107.377 -115.584,-112.142C-114.934,-112.792 -114.934,-112.792 -112.007,-113.586L-112.007,-119.002C-110.836,-118.786 -109.73,-118.569 -108.625,-118.424C-108.364,-119.219 -108.169,-120.013 -107.975,-120.807C-103.291,-120.59 -99.648,-121.963 -95.291,-121.963L-89.827,-120.446C-89.762,-121.024 -89.762,-121.602 -89.762,-122.252C-88.591,-122.035 -87.42,-121.891 -86.25,-121.746C-86.119,-121.457 -86.054,-121.24 -85.989,-121.024C-53.987,-121.024 -43.71,-122.757 -42.8,-119.941L-40.393,-119.941C-40.328,-120.23 -40.328,-120.519 -40.328,-120.807L-32.522,-120.807C-32.458,-120.519 -32.393,-120.23 -32.393,-119.941C-21.595,-121.891 -10.862,-122.54 0,-122.757" style="fill:rgb(35,31,32);"/>
    </g>
    <g transform="matrix(7.05557,0,0,7.05557,801.286,162.977)">
        <path d="M0,-16.825C-1.561,-12.853 -8.911,-14.298 -10.732,-12.709C-9.171,-11.843 -7.61,-11.048 -6.049,-10.254C-3.317,-11.698 -2.276,-11.698 -0.976,-14.586C2.732,-15.453 5.464,-15.669 8.716,-15.887C8.13,-13.937 7.545,-11.987 6.96,-10.109C-1.821,-8.015 -1.431,-9.388 -5.008,-0.217C-5.333,-0.144 -5.659,-0.072 -6.049,0C-6.635,-2.31 -6.635,-2.31 -7.35,-3.538C-7.74,-3.611 -8.195,-3.683 -8.651,-3.827C-8.781,-6.21 -8.13,-7.582 -10.927,-9.315L-10.927,-7.076C-11.188,-6.932 -11.448,-6.788 -11.708,-6.716C-11.643,-8.232 -10.927,-9.026 -12.098,-10.687C-20.749,-10.759 -20.749,-10.759 -22.896,-10.254C-24.717,-8.232 -27.774,-9.243 -30.636,-8.954C-30.636,-8.665 -30.701,-8.376 -30.766,-8.159C-32.652,-8.521 -34.604,-8.954 -36.555,-9.388C-36.685,-9.893 -36.815,-10.398 -36.945,-10.904C-37.531,-10.759 -38.116,-10.615 -38.766,-10.471C-38.832,-10.181 -38.896,-9.893 -39.026,-9.604C-40.198,-9.676 -41.368,-9.748 -42.604,-9.893C-43.645,-11.626 -45.076,-11.987 -47.353,-12.781C-47.482,-13.07 -47.612,-13.431 -47.743,-13.792C-48.263,-13.72 -48.784,-13.648 -49.369,-13.575C-49.629,-12.709 -49.629,-12.709 -49.304,-11.626C-47.092,-11.626 -46.312,-11.193 -44.881,-10.687C-44.75,-10.326 -44.686,-9.965 -44.621,-9.604C-48.653,-9.748 -50.409,-9.893 -54.768,-12.203C-54.703,-11.843 -54.637,-11.554 -54.572,-11.264C-53.532,-10.615 -52.556,-10.037 -51.581,-9.46C-53.402,-9.46 -54.768,-10.904 -57.239,-11.987C-57.239,-12.42 -57.239,-12.853 -57.304,-13.287L-57.955,-13.287C-57.825,-12.565 -57.694,-11.915 -57.564,-11.264C-55.743,-10.687 -55.743,-10.687 -55.223,-10.109C-55.288,-9.243 -55.353,-8.449 -55.483,-7.654L-59.386,-7.654C-59.516,-8.376 -59.646,-9.098 -59.841,-9.821C-60.751,-9.965 -61.662,-10.109 -62.573,-10.326C-62.573,-13.503 -62.573,-13.503 -62.118,-14.586C-55.158,-14.514 -48.198,-14.442 -41.303,-14.442C-41.108,-14.153 -40.978,-13.865 -40.848,-13.648C-37.921,-13.575 -34.994,-13.575 -32.132,-13.575C-39.482,-14.803 -33.953,-14.658 -31.221,-14.875C-31.156,-14.586 -31.091,-14.298 -31.091,-14.009C-20.749,-14.731 -10.277,-16.464 0,-16.825" style="fill:white;"/>
    </g>
    <g transform="matrix(-7.05557,0,0,7.05557,497.437,-5771.8)">
        <rect x="41.492" y="825.262" width="1.691" height="1.011" style="fill:white;"/>
    </g>
    <g transform="matrix(7.05557,0,0,7.05557,146.858,256.212)">
        <path d="M0,-29.101C3.967,-27.368 6.764,-25.779 10.146,-24.913C10.277,-24.479 10.342,-24.119 10.407,-23.757C5.333,-22.747 2.341,-23.107 -1.041,-17.475C-0.521,-15.381 0,-13.359 0.521,-11.337C8.781,-10.11 8.391,-11.265 13.009,-18.269C13.464,-18.558 13.919,-18.847 14.31,-19.208C16.066,-18.197 16.066,-18.197 17.952,-17.692C18.212,-16.969 18.408,-16.247 18.603,-15.598C17.237,-15.67 15.871,-15.814 14.44,-15.958C14.44,-15.525 14.375,-15.092 14.31,-14.659C11.968,-14.37 10.082,-13.215 9.497,-10.76C9.106,-10.687 8.716,-10.615 8.326,-10.615L8.326,-9.459C9.562,-9.099 10.797,-8.738 12.033,-8.449C12.749,-9.604 15.741,-9.099 16.456,-9.099C14.96,-8.593 13.399,-8.16 11.838,-7.726C11.578,-7.077 11.318,-6.427 11.058,-5.777C13.009,-5.56 13.854,-5.055 13.594,-3.322C12.098,-3.322 11.383,-3.611 9.366,-4.694C11.513,-2.6 11.513,-2.6 11.708,-1.661C11.058,-1.083 10.407,-0.505 9.691,0C9.106,-0.217 8.456,-0.434 7.805,-0.65C7.675,-1.3 7.545,-1.95 7.35,-2.6C8.585,-2.672 8.585,-2.672 8.585,-2.961L7.025,-2.961C7.025,-2.672 6.959,-2.383 6.895,-2.094C6.569,-2.166 6.244,-2.239 5.919,-2.383C5.919,-3.899 7.285,-3.899 8.13,-4.116C8.13,-7.582 5.398,-12.204 0.65,-10.254C0.65,-9.604 0.585,-9.026 0.521,-8.449C2.341,-7.582 2.341,-7.582 2.862,-6.788C-0.195,-7.077 -1.496,-8.954 -3.188,-12.42C-3.252,-11.914 -3.317,-11.409 -3.382,-10.904C-3.578,-11.265 -5.008,-13.648 -6.244,-12.709C-6.244,-12.276 -6.244,-11.914 -6.31,-11.554C-6.635,-11.337 -7.025,-11.121 -7.416,-10.904C-7.545,-11.914 -7.74,-12.926 -7.936,-14.009C-9.171,-13.864 -10.407,-13.72 -11.708,-13.648C-10.667,-16.825 -10.798,-16.464 -13.92,-18.197C-13.074,-18.341 -12.229,-18.486 -11.383,-18.703C-12.163,-19.136 -12.163,-19.136 -15.09,-19.28C-14.115,-17.186 -14.115,-17.186 -14.115,-15.886C-14.765,-15.742 -15.416,-15.67 -16.066,-15.598C-16.066,-16.031 -16.066,-16.464 -16.131,-16.897C-16.651,-16.753 -17.237,-16.608 -17.822,-16.536C-17.953,-17.403 -18.083,-18.269 -18.278,-19.136C-18.538,-19.28 -18.798,-19.424 -19.123,-19.641C-18.278,-19.713 -17.432,-19.858 -16.586,-20.002C-16.001,-21.158 -15.416,-22.313 -14.896,-23.54C-15.09,-24.263 -15.351,-24.985 -15.611,-25.707C-14.57,-25.562 -13.595,-25.49 -12.619,-25.418C-12.229,-25.779 -11.838,-26.14 -11.448,-26.574C-11.513,-26.934 -11.578,-27.295 -11.708,-27.657C-7.61,-27.368 -3.643,-28.812 0,-29.101" style="fill:white;"/>
    </g>
    <g transform="matrix(7.05557,0,0,7.05557,324.002,95.2177)">
        <path d="M0,-5.777C0.781,-5.56 1.497,-5.416 2.212,-5.272C2.017,-3.466 1.821,-1.734 1.561,0C1.106,-2.889 1.106,-2.889 1.301,-3.827C-0.26,-3.827 -3.967,-3.177 -5.398,-4.766C-3.578,-5.055 -1.756,-5.416 0,-5.777" style="fill:white;"/>
    </g>
    <g transform="matrix(7.05557,0,0,7.05557,272.146,68.7198)">
        <path d="M0,-1.516C-0.195,-1.083 -0.391,-0.722 -0.651,-0.361C-1.691,-0.361 -1.821,0 -3.382,-1.155C-2.212,-1.227 -1.106,-1.371 0,-1.516" style="fill:white;"/>
    </g>
    <g transform="matrix(-4.12631,-5.72317,-5.72317,4.12631,218.479,60.6639)">
        <path d="M-0.341,-1.112C-0.593,-1.091 -0.844,-1.07 -1.038,-1.091C-0.85,-0.585 -0.626,-0.025 -0.341,0.492L0.42,-0.057L-0.341,-1.112" style="fill:white;"/>
    </g>
    <g transform="matrix(7.05557,0,0,7.05557,908.677,159.921)">
        <path d="M0,-14.009C-0.911,-12.132 -1.887,-10.254 -2.862,-8.448C-8.196,-6.499 -8.196,-6.499 -12.489,-4.188C-13.79,-1.95 -14.31,-1.155 -16.001,0.289C-16.782,0.072 -17.627,-0.145 -18.473,-0.361C-16.716,-3.321 -16.716,-3.321 -16.521,-4.333C-16.261,-4.333 -16.001,-4.405 -15.741,-4.477C-15.676,-4.766 -15.611,-5.055 -15.611,-5.343C-11.058,-6.932 -7.871,-7.51 -6.96,-12.998C-4.618,-14.298 -1.952,-13.864 0,-14.009" style="fill:white;"/>
    </g>
    <g transform="matrix(7.05557,0,0,7.05557,110.144,96.2302)">
        <path d="M0,-4.982C0.39,-4.26 0.39,-4.26 2.342,-3.176C2.342,-2.815 2.342,-2.527 2.276,-2.238C1.886,-2.382 1.496,-2.599 1.105,-2.815C0.976,-2.599 0.78,-2.455 0.585,-2.31C0.846,-1.588 1.105,-0.866 1.301,-0.144C0.065,-0.072 -1.171,0 -2.407,0C-0.651,-1.949 -1.041,-1.949 -0.911,-4.982L0,-4.982" style="fill:rgb(35,31,32);"/>
    </g>
    <g transform="matrix(-7.05557,0,0,7.05557,794.342,-5724.43)">
        <rect x="63.15" y="820.496" width="0.456" height="3.828" style="fill:white;"/>
    </g>
    <g transform="matrix(-4.43446,-5.48786,-5.48786,4.43446,849.471,98.0125)">
        <path d="M-5.505,-13.532C-9.526,-6.102 -10.332,-5.031 -6.627,2.427C-4.835,1.314 -5.443,-0.703 -5.505,-2.159C-4.306,-5.385 -3.075,-6.965 -2.459,-9.303C-3.507,-10.715 -4.554,-12.126 -5.505,-13.532" style="fill:white;"/>
    </g>
    <g transform="matrix(-7.05557,0,0,7.05557,781.967,-5737.66)">
        <rect x="62.306" y="822.879" width="0.39" height="0.938" style="fill:white;"/>
    </g>
    <g transform="matrix(7.05557,0,0,7.05557,250.576,154.32)">
        <path d="M0,-12.204C5.463,-8.954 7.415,-6.211 9.431,-0.073C9.041,0 8.585,0 8.13,0C7.024,-1.95 5.268,-3.25 3.772,-5.922C3.187,-10.543 2.471,-8.738 -0.976,-10.543L-0.976,-11.915C-0.651,-11.987 -0.325,-12.06 0,-12.204" style="fill:white;"/>
    </g>
    <g transform="matrix(-6.43152,-2.90114,-2.90114,6.43152,704.77,97.7624)">
        <path d="M-0.077,-1.461C-0.462,-1.08 -0.789,-0.673 -1.085,-0.331C-0.759,-0.263 -0.434,-0.195 -0.077,-0.193C0.13,-0.496 0.396,-0.771 0.694,-1.113L-0.077,-1.461" style="fill:white;"/>
    </g>
    <g transform="matrix(7.05557,0,0,7.05557,679.213,185.902)">
        <path d="M0,-13.792C1.041,-12.998 1.041,-12.998 2.602,-9.965C-1.821,-8.882 -6.504,-4.26 -9.041,0C-9.106,-0.433 -9.171,-0.866 -9.301,-1.3C-7.48,-3.827 -5.464,-5.705 -3.122,-7.654C-3.252,-9.387 -3.252,-10.037 -4.943,-11.192L-4.943,-12.059C-3.252,-12.637 -1.626,-13.214 0,-13.792" style="fill:white;"/>
    </g>
    <g transform="matrix(0,7.05557,7.05557,0,265.078,106.505)">
        <path d="M-1.6,0.156L-0.156,0.156C-0.228,-0.3 -0.372,-0.755 -0.517,-1.21C-0.878,-1.34 -1.239,-1.47 -1.6,-1.6L-1.6,0.156" style="fill:white;"/>
    </g>
    <g transform="matrix(7.05557,0,0,7.05557,131.252,139.539)">
        <path d="M0,-6.282C0.326,-6.066 0.651,-5.921 0.911,-5.777C0.26,-0.938 0.26,-0.938 -0.195,0C-0.13,-0.866 -0.065,-1.805 -0.065,-2.744C-0.325,-2.744 -0.585,-2.816 -0.845,-2.888C-0.455,-3.683 -0.13,-4.477 0.195,-5.271C-0.845,-5.777 -0.845,-5.777 -0.845,-6.282L0,-6.282" style="fill:rgb(35,31,32);"/>
    </g>
    <g transform="matrix(7.05557,0,0,7.05557,64.2515,117.632)">
        <path d="M0,-3.177C0.521,-2.888 1.041,-2.599 1.496,-2.383C1.626,-1.877 1.756,-1.372 1.821,-0.866C2.406,-0.578 2.927,-0.289 3.447,0C2.731,-0.144 1.951,-0.361 1.17,-0.578C1.041,-1.083 0.91,-1.589 0.78,-2.094C0.13,-2.239 -0.585,-2.455 -1.301,-2.672L-1.301,-3.177L0,-3.177" style="fill:rgb(35,31,32);"/>
    </g>
    <g transform="matrix(-7.05557,0,0,7.05557,1519.46,-5669.91)">
        <rect x="114.342" y="818.041" width="0.845" height="1.011" style="fill:white;"/>
    </g>
    <g transform="matrix(-2.10896,-6.73301,-6.73301,2.10896,445.459,100.178)">
        <path d="M-1.437,-3.799C-2.9,-4.364 -3.645,-4.812 -4.483,-4.345C-1.751,-3.837 -1.702,-1.263 -1.437,1.517C-2.353,2.213 -2.098,2.542 -0.44,0.591C-0.818,-0.858 -1.128,-2.329 -1.437,-3.799" style="fill:white;"/>
    </g>
    <g transform="matrix(7.05557,0,0,7.05557,532.355,159.411)">
        <path d="M0,-7.654C1.236,-6.643 2.472,-5.704 3.708,-4.766C3.708,-2.311 3.838,-1.516 2.927,0C2.732,-4.26 -0.715,-6.932 -4.813,-5.416C-4.683,-5.849 -4.553,-6.355 -4.488,-6.86C-3.512,-7.365 -3.512,-7.365 0,-7.654" style="fill:white;"/>
    </g>
    <g transform="matrix(7.05557,0,0,7.05557,314.824,121.198)">
        <path d="M0,-2.238C-0.715,0 -0.715,0 -1.041,-0.217C-0.976,-0.722 -0.976,-1.3 -0.976,-1.877C-0.65,-1.949 -0.325,-2.094 0,-2.238" style="fill:white;"/>
    </g>
    <g transform="matrix(7.05557,0,0,7.05557,327.216,139.539)">
        <path d="M0,-3.899C1.496,-1.588 1.496,-1.588 1.756,0C0.26,-0.289 0.39,-2.022 -1.691,-3.466C-1.106,-3.61 -0.521,-3.754 0,-3.899" style="fill:white;"/>
    </g>
    <g transform="matrix(-5.78607,4.03763,4.03763,5.78607,472.523,132.569)">
        <path d="M-0.117,-2.852C-0.402,-2.125 -0.688,-1.397 -0.973,-0.67C-0.696,-0.159 -0.406,0.256 -0.117,0.671C-0.257,-0.553 0.2,-1.488 1.145,-3.204C0.689,-3.062 0.287,-2.957 -0.117,-2.852" style="fill:white;"/>
    </g>
    <g transform="matrix(7.05557,0,0,7.05557,403.856,131.9)">
        <path d="M0,-2.311C1.756,0 -2.016,-0.939 -3.513,-0.867L-3.513,-1.805C-2.341,-1.95 -1.171,-2.094 0,-2.311" style="fill:white;"/>
    </g>
    <g transform="matrix(-6.96976,1.09702,1.09702,6.96976,360.138,149.308)">
        <path d="M0.012,-4.839C-1.082,-1.742 -1.082,-1.742 -1.356,0.274C-0.918,0.132 -0.48,-0.01 0.012,-0.234C0.26,-1.588 1.524,-3.177 1.746,-5.112L0.012,-4.839" style="fill:white;"/>
    </g>
    <g transform="matrix(7.05557,0,0,7.05557,721.891,129.352)">
        <path d="M0,-1.444C-0.065,-0.939 -0.13,-0.433 -0.195,0C-0.39,-0.433 -0.585,-0.939 -0.845,-1.444L0,-1.444" style="fill:white;"/>
    </g>
    <g transform="matrix(-7.05557,0,0,7.05557,993.062,-5639.33)">
        <rect x="77.005" y="816.163" width="0.911" height="0.433" style="fill:white;"/>
    </g>
    <g transform="matrix(7.05557,0,0,7.05557,525.933,146.166)">
        <path d="M0,-3.394C1.625,-1.733 2.211,-1.372 2.406,0C1.886,-0.867 -1.301,-3.033 -1.301,-3.394L0,-3.394" style="fill:white;"/>
    </g>
    <g transform="matrix(-7.05557,0,0,7.05557,1124.77,-5632.71)">
        <rect x="86.566" y="815.658" width="0.456" height="0.505" style="fill:white;"/>
    </g>
    <g transform="matrix(-5.01212,-4.96585,-4.96585,5.01212,680.684,144.499)">
        <path d="M-1.035,-4.759C-2.735,-4.614 -2.735,-4.614 -4.315,-3.943C-3.239,-2.165 -2.162,-0.387 -1.035,1.341C-0.282,0.765 0.472,0.19 1.323,-0.391C0.948,-1.676 0.948,-1.676 -1.035,-4.759" style="fill:white;"/>
    </g>
    <g transform="matrix(7.05557,0,0,7.05557,419.001,134.45)">
        <path d="M0,-1.228L0,-0.29C-3.903,0 -3.903,0 -6.049,-0.506C-4.033,-0.723 -2.017,-0.939 0,-1.228" style="fill:white;"/>
    </g>
    <g transform="matrix(7.05557,0,0,7.05557,183.573,130.879)">
        <path d="M0,-0.722C-0.26,0 -0.26,0 -0.716,-0.144C-0.456,-0.289 -0.195,-0.506 0,-0.722" style="fill:white;"/>
    </g>
    <g transform="matrix(7.05557,0,0,7.05557,525.933,162.978)">
        <path d="M0,-4.333C1.105,-3.033 1.105,-3.033 2.081,-0.361C1.821,-0.217 1.561,-0.072 1.301,0C0,-2.672 -0.976,-3.105 -4.293,-2.889C-4.163,-3.25 -4.098,-3.611 -4.033,-3.972C-2.667,-4.044 -1.301,-4.188 0,-4.333" style="fill:white;"/>
    </g>
    <g transform="matrix(7.05557,0,0,7.05557,419.001,144.64)">
        <path d="M0,-1.228L0,-0.29C-0.845,0 -5.333,-0.073 -5.594,-0.362C-3.252,-0.362 -1.756,-0.145 0,-1.228" style="fill:white;"/>
    </g>
    <g transform="matrix(-6.19276,-3.38094,-3.38094,6.19276,442.854,168.364)">
        <path d="M-0.385,-4.864C-2.176,-3.62 -2.085,-3.242 -2.618,-1.723C-1.515,-0.215 -1.515,-0.215 -0.385,0.566C0.625,-2.914 0.625,-2.914 1.27,-3.55C0.676,-3.956 0.117,-4.425 -0.385,-4.864" style="fill:white;"/>
    </g>
    <g transform="matrix(7.05557,0,0,7.05557,330.427,189.475)">
        <path d="M0,-6.644C1.301,-4.189 3.578,-3.394 3.123,0C2.082,-2.095 1.496,-4.477 -0.846,-6.211C-0.52,-6.355 -0.26,-6.499 0,-6.644" style="fill:white;"/>
    </g>
    <g transform="matrix(7.05557,0,0,7.05557,498.396,184.883)">
        <path d="M0,-5.488C2.862,-4.332 4.683,-2.744 4.553,0L3.772,0C2.341,-1.877 1.236,-4.26 -2.146,-2.816C-2.342,-3.032 -2.537,-3.249 -2.797,-3.466C-1.756,-4.694 -1.756,-4.694 0,-5.488" style="fill:white;"/>
    </g>
    <g transform="matrix(-7.05557,0,0,7.05557,971.5,-5584.82)">
        <rect x="75.705" y="812.264" width="0.455" height="0.506" style="fill:white;"/>
    </g>
    <g transform="matrix(-7.05557,0,0,7.05557,941.211,-5584.82)">
        <rect x="73.558" y="812.264" width="0.456" height="0.506" style="fill:white;"/>
    </g>
    <g transform="matrix(-7.05557,0,0,7.05557,1191.79,-5574.62)">
        <rect x="91.316" y="811.325" width="0.455" height="0.938" style="fill:white;"/>
    </g>
    <g transform="matrix(7.05557,0,0,7.05557,415.79,154.826)">
        <path d="M0,-0.722C-0.781,0 -0.781,0 -1.691,0C-1.106,-0.217 -0.521,-0.433 0,-0.722" style="fill:white;"/>
    </g>
    <g transform="matrix(-7.05557,0,0,7.05557,879.715,-5578.2)">
        <rect x="68.355" y="811.831" width="2.146" height="0.433" style="fill:white;"/>
    </g>
    <g transform="matrix(7.05557,0,0,7.05557,354.75,213.923)">
        <path d="M0,-9.098C0.911,-8.376 0.911,-8.376 2.146,-8.16C2.212,-7.87 2.277,-7.582 2.277,-7.293C4.879,-7.293 4.423,-1.3 4.358,0C4.163,-0.072 3.903,-0.217 3.643,-0.361C3.513,-3.466 3.318,-4.116 1.366,-7.365C-1.301,-8.665 -1.301,-8.665 -1.301,-9.098L0,-9.098" style="fill:white;"/>
    </g>
    <g transform="matrix(7.05557,0,0,7.05557,727.858,217.494)">
        <path d="M0,-9.171C-1.366,-3.394 -5.789,-0.361 -11.252,0C-11.057,-1.3 -9.822,-1.517 -8.716,-2.022C-9.106,-2.022 -9.496,-2.022 -9.952,-2.094C-9.952,-2.383 -10.017,-2.672 -10.082,-3.033C-8.976,-4.549 -7.675,-5.128 -7.35,-6.716C-5.789,-7.438 -3.122,-9.026 -1.821,-8.666C-2.407,-7.799 -2.992,-7.004 -3.577,-6.211C-3.447,-6.066 -3.317,-5.994 -3.187,-5.921C-2.016,-7.004 -1.951,-7.366 -1.301,-9.171L0,-9.171" style="fill:white;"/>
    </g>
    <g transform="matrix(-7.05557,0,0,7.05557,1580.49,-5561.39)">
        <rect x="118.634" y="810.387" width="0.911" height="0.938" style="fill:white;"/>
    </g>
    <g transform="matrix(-7.05557,0,0,7.05557,941.211,-5564.44)">
        <rect x="73.558" y="810.82" width="0.456" height="0.505" style="fill:white;"/>
    </g>
    <g transform="matrix(7.05557,0,0,7.05557,296.469,244.492)">
        <path d="M0,-12.492C4.553,-10.253 10.602,-6.065 8,-0.216C7.545,-0.144 7.024,-0.072 6.504,0C5.919,-3.249 5.919,-3.249 6.114,-4.116C6.504,-3.899 6.83,-3.682 7.155,-3.538C5.854,-6.643 5.854,-6.643 3.708,-9.532C-1.301,-11.987 -1.301,-11.987 -1.301,-12.492L0,-12.492" style="fill:white;"/>
    </g>
    <g transform="matrix(7.05557,0,0,7.05557,565.859,193.546)">
        <path d="M0,-4.766C-0.391,-3.249 -0.781,-1.733 -1.171,-0.289C-1.496,-0.144 -1.821,-0.072 -2.146,0C-0.391,-4.549 -0.391,-4.549 0,-4.766" style="fill:white;"/>
    </g>
    <g transform="matrix(-7.05557,0,0,7.05557,904.494,-5557.82)">
        <rect x="70.111" y="810.387" width="2.146" height="0.433" style="fill:white;"/>
    </g>
    <g transform="matrix(7.05557,0,0,7.05557,581.003,230.229)">
        <path d="M0,-9.532C-0.716,-5.344 -0.13,-1.589 -3.903,0C-4.033,-0.506 -4.228,-1.083 -4.423,-1.661C-5.724,-1.083 -4.878,-0.361 -6.504,-0.361L-6.504,-1.3C-5.984,-1.589 -5.464,-1.877 -5.008,-2.239C-5.074,-2.672 -5.139,-3.105 -5.269,-3.611C-5.529,-3.611 -5.789,-3.683 -6.049,-3.755C-5.919,-4.116 -5.789,-4.477 -5.724,-4.838C-3.317,-4.694 -2.732,-3.899 -1.496,-3.466C-1.431,-3.611 -1.366,-3.827 -1.366,-4.044C-1.626,-4.044 -1.886,-4.116 -2.146,-4.188C-1.431,-5.921 -0.716,-7.726 0,-9.532" style="fill:white;"/>
    </g>
    <g transform="matrix(-5.00087,4.97719,4.97719,5.00087,411.162,176.451)">
        <path d="M1.31,-3.286C1.077,-2.137 0.845,-0.988 0.607,0.064C0.811,0.269 1.061,0.428 1.31,0.587C1.929,-1.558 1.929,-1.558 1.653,-3.219C1.556,-3.224 1.459,-3.229 1.31,-3.286" style="fill:white;"/>
    </g>
    <g transform="matrix(-4.4314,-5.49033,-5.49033,4.4314,733.334,172.101)">
        <path d="M-0.927,-1.598C-1.167,-1.321 -1.407,-1.044 -1.607,-0.716C-1.418,-0.367 -1.172,-0.063 -0.927,0.241C-0.605,0.065 -0.284,-0.111 0.135,-0.282L-0.927,-1.598" style="fill:white;"/>
    </g>
    <g transform="matrix(7.05557,0,0,7.05557,593.395,207.3)">
        <path d="M0,-5.271C-0.651,-1.949 -0.651,-1.949 -1.496,0C-1.496,-1.949 -0.846,-3.321 0,-5.271" style="fill:white;"/>
    </g>
    <g transform="matrix(7.05557,0,0,7.05557,483.252,210.87)">
        <path d="M0,-5.777C2.472,-3.538 2.602,-2.383 3.447,0C2.146,-0.289 2.081,-1.372 1.235,-3.25C0.976,-3.25 0.715,-3.322 0.455,-3.394C0.455,-3.61 0.39,-3.9 0.325,-4.189C-0.781,-4.189 -1.886,-4.261 -3.057,-4.333C-2.927,-4.694 -2.797,-5.055 -2.732,-5.488C-1.821,-5.56 -0.911,-5.632 0,-5.777" style="fill:white;"/>
    </g>
    <g transform="matrix(7.05557,0,0,7.05557,816.89,200.675)">
        <path d="M0,-3.899C0.195,-3.394 0.391,-2.96 0.521,-2.527C1.496,-2.455 2.472,-2.455 3.448,-2.455L3.448,-1.01C1.301,-0.361 -0.715,-0.072 -3.512,0L-3.512,-1.949C-2.797,-1.949 -2.082,-1.949 -1.431,-2.022C-1.236,-2.599 -1.041,-3.249 -0.91,-3.899L0,-3.899" style="fill:white;"/>
    </g>
    <g transform="matrix(7.05557,0,0,7.05557,698.947,199.154)">
        <path d="M0,-3.178C0.195,-1.589 -2.992,-0.145 -4.488,0C-2.992,-1.011 -1.496,-2.095 0,-3.178" style="fill:rgb(35,31,32);"/>
    </g>
    <g transform="matrix(-7.05557,0,0,7.05557,1638.77,-5513.5)">
        <rect x="122.992" y="806.993" width="0.455" height="0.939" style="fill:white;"/>
    </g>
    <g transform="matrix(-7.05557,0,0,7.05557,1617.2,-5513.5)">
        <rect x="121.235" y="806.993" width="0.911" height="0.939" style="fill:white;"/>
    </g>
    <g transform="matrix(-6.77469,1.97094,1.97094,6.77469,472.507,227.277)">
        <path d="M-0.012,-6.931C-1.516,-3.485 -1.755,-2.213 -0.761,0.507L-0.012,0.289C-0.1,-3.973 0.576,-2.816 2.186,-6.593C1.381,-7.035 1.381,-7.035 -0.012,-6.931" style="fill:white;"/>
    </g>
    <g transform="matrix(-7.05557,0,0,7.05557,1834.28,-5500.24)">
        <rect x="136.847" y="805.548" width="0.455" height="1.95" style="fill:white;"/>
    </g>
    <g transform="matrix(7.05557,0,0,7.05557,749.427,188.45)">
        <path d="M0,-0.722C0.13,-0.506 0.26,-0.289 0.325,-0.072C0.195,0 0.065,0 -0.13,0C-0.065,-0.217 0,-0.433 0,-0.722" style="fill:white;"/>
    </g>
    <g transform="matrix(7.05557,0,0,7.05557,437.356,237.87)">
        <path d="M0,-7.221C0.651,-4.982 2.082,-1.444 0.781,0C0.521,-2.888 0.26,-4.116 -1.301,-7.221L0,-7.221" style="fill:white;"/>
    </g>
    <g transform="matrix(-5.24184,-4.72273,-4.72273,5.24184,774.733,196.294)">
        <path d="M-0.65,-1.694C-0.844,-1.382 -0.989,-1.027 -1.134,-0.672C-0.99,-0.346 -0.844,-0.021 -0.651,0.25C-0.505,-0.105 -0.36,-0.461 -0.119,-0.826C-0.313,-1.098 -0.506,-1.369 -0.65,-1.694" style="fill:white;"/>
    </g>
    <g transform="matrix(7.05557,0,0,7.05557,415.79,227.678)">
        <path d="M0,-5.271C0.26,-2.599 0.26,-2.599 -0.195,0C-0.586,-3.827 -0.586,-3.827 -1.171,-4.91C-0.781,-4.982 -0.39,-5.126 0,-5.271" style="fill:white;"/>
    </g>
    <g transform="matrix(-7.05557,0,0,7.05557,1558.93,-5473.25)">
        <rect x="117.333" y="803.166" width="0.456" height="2.888" style="fill:white;"/>
    </g>
    <g transform="matrix(7.05557,0,0,7.05557,648.465,207.3)">
        <path d="M0,-1.444C-0.195,-0.939 -0.39,-0.433 -0.65,0C-0.585,-1.083 -0.585,-1.083 0,-1.444" style="fill:white;"/>
    </g>
    <g transform="matrix(7.05557,0,0,7.05557,278.11,234.302)">
        <path d="M0,-5.271C4.358,-4.549 4.358,-4.549 5.789,-3.899L5.789,-1.733C5.334,-1.588 4.878,-1.516 4.358,-1.444L4.358,-0.433C5.204,-0.433 5.204,0 0,-1.444C0,-1.877 0,-1.877 3.057,-1.877L3.057,-2.382C1.756,-2.527 0.456,-2.671 -0.845,-2.888C-0.39,-4.982 -0.39,-4.982 0,-5.271" style="fill:white;"/>
    </g>
    <g transform="matrix(-7.05557,0,0,7.05557,1583.71,-5466.11)">
        <rect x="119.089" y="803.166" width="0.456" height="1.877" style="fill:white;"/>
    </g>
    <g transform="matrix(7.05557,0,0,7.05557,780.175,228.188)">
        <path d="M0,-2.96C-0.325,0 -1.626,-0.649 -4.358,-1.01L-4.358,-2.455C-2.862,-2.599 -1.431,-2.744 0,-2.96" style="fill:white;"/>
    </g>
    <g transform="matrix(7.05557,0,0,7.05557,256.998,234.305)">
        <path d="M0,-3.827C0.26,-2.527 0.456,-1.228 0.651,0C-0.195,-1.083 -1.105,-2.166 -2.016,-3.322C-1.301,-3.466 -0.65,-3.611 0,-3.827" style="fill:white;"/>
    </g>
    <g transform="matrix(-4.1292,-5.72108,-5.72108,4.1292,514.733,214.82)">
        <path d="M-0.475,-1.615C-0.846,-1.267 -1.16,-0.96 -1.435,-0.601C-1.128,-0.421 -0.82,-0.242 -0.475,-0.01L0.286,-0.56L-0.475,-1.615" style="fill:white;"/>
    </g>
    <g transform="matrix(7.05557,0,0,7.05557,369.894,250.608)">
        <path d="M0,-4.188C3.122,-2.455 3.122,-2.455 6.96,-1.3L6.96,-0.361C5.529,-0.434 -0.715,0 0,-4.188" style="fill:white;"/>
    </g>
    <g transform="matrix(-7.05557,0,0,7.05557,133.489,-5428.92)">
        <rect x="16.318" y="801.216" width="0.456" height="0.505" style="fill:white;"/>
    </g>
    <g transform="matrix(7.05557,0,0,7.05557,213.862,246.021)">
        <path d="M0,-1.155C0.26,-0.722 0.52,-0.361 0.78,0C0.325,0 0.325,0 -0.195,-0.65C-0.13,-0.794 -0.065,-0.939 0,-1.155" style="fill:rgb(35,31,32);"/>
    </g>
    <g transform="matrix(-6.29426,-3.188,-3.188,6.29426,260.4,250.245)">
        <path d="M-0.167,-1.484C-0.511,-1.092 -0.855,-0.699 -1.167,-0.372C-0.845,-0.289 -0.522,-0.207 -0.167,-0.189C0.054,-0.482 0.334,-0.745 0.646,-1.072L-0.167,-1.484" style="fill:white;"/>
    </g>
    <g transform="matrix(7.05557,0,0,7.05557,174.392,246.023)">
        <path d="M0,-0.65C-0.26,0 -0.26,0 -1.041,0C-0.911,-0.433 -0.911,-0.433 0,-0.65" style="fill:white;"/>
    </g>
    <g transform="matrix(7.05557,0,0,7.05557,253.787,267.419)">
        <path d="M0,-2.744C0.715,-1.083 0.65,-1.083 0.521,0C-0.065,-0.722 -0.65,-1.516 -1.236,-2.31C-0.78,-2.455 -0.391,-2.599 0,-2.744" style="fill:white;"/>
    </g>
    <g transform="matrix(7.05557,0,0,7.05557,241.399,263.856)">
        <path d="M0,-1.3C0.064,-0.867 0.129,-0.434 0.129,0C0.129,-0.434 0.064,-0.867 0,-1.3" style="fill:white;"/>
    </g>
    <g transform="matrix(-6.65489,-2.34383,-2.34383,6.65489,195.971,268.95)">
        <path d="M-0.293,-1.711C-0.658,-1.457 -1,-1.271 -1.279,-1.064C-1.028,-0.209 -1.028,-0.209 -0.293,0.05C0.059,-0.362 0.497,-0.82 0.935,-1.279L-0.293,-1.711" style="fill:white;"/>
    </g>
    <g transform="matrix(7.05557,0,0,7.05557,235.432,272.003)">
        <path d="M0,-1.444C0.195,-0.938 0.325,-0.433 0.455,0L-0.456,0C-0.26,-0.433 -0.13,-0.938 0,-1.444" style="fill:white;"/>
    </g>
    <g transform="matrix(7.05557,0,0,7.05557,112.896,274.551)">
        <path d="M0,-1.372C-1.691,0 -1.561,-0.144 -4.293,-0.144C-2.862,-0.505 -1.431,-0.938 0,-1.372" style="fill:white;"/>
    </g>
    <g transform="matrix(7.05557,0,0,7.05557,186.326,275.058)">
        <path d="M0,-0.938C0.13,-0.721 0.26,-0.505 0.39,-0.288C0.13,-0.144 -0.13,-0.072 -0.39,0C-0.26,-0.288 -0.13,-0.577 0,-0.938" style="fill:white;"/>
    </g>
    <g transform="matrix(-6.08771,3.56662,3.56662,6.08771,231.396,280.798)">
        <path d="M-0.001,-1.444C-0.208,-1.154 -0.359,-0.899 -0.512,-0.643L-0.001,0.23L1.122,-0.428C0.735,-0.703 0.367,-1.074 -0.001,-1.444" style="fill:white;"/>
    </g>
    <g transform="matrix(0,7.05557,7.05557,0,260.84,298.731)">
        <path d="M-1.91,-0.544L0.544,-0.544C0.257,-0.999 -0.033,-1.454 -0.321,-1.91L-1.477,-1.91C-1.621,-1.454 -1.765,-0.999 -1.91,-0.544" style="fill:rgb(35,31,32);"/>
    </g>
    <g transform="matrix(7.05557,0,0,7.05557,220.284,291.369)">
        <path d="M0,-0.867C-0.26,-0.578 -0.52,-0.289 -0.78,0C-0.845,-0.073 -0.976,-0.217 -1.105,-0.362C-0.715,-0.506 -0.325,-0.65 0,-0.867" style="fill:white;"/>
    </g>
    <g transform="matrix(7.05557,0,0,7.05557,128.5,299.01)">
        <path d="M0,-1.95L-0.976,0C-0.976,-0.361 -0.976,-0.722 -1.041,-1.083C-0.65,-1.372 -0.325,-1.661 0,-1.95" style="fill:white;"/>
    </g>
    <g transform="matrix(7.05557,0,0,7.05557,204.684,312.767)">
        <path d="M0,-2.889C1.105,-1.589 1.105,-1.589 1.756,0C0.845,-0.144 0.52,-0.722 -0.651,-2.311C-0.391,-2.455 -0.195,-2.672 0,-2.889" style="fill:white;"/>
    </g>
    <g transform="matrix(-7.05557,0,0,7.05557,497.423,-5265.88)">
        <rect x="41.881" y="789.662" width="0.911" height="0.505" style="fill:white;"/>
    </g>
    <g transform="matrix(-6.15522,3.44882,3.44882,6.15522,59.8854,324.073)">
        <path d="M0.85,-3.472C0.614,-2.43 0.434,-1.419 0.256,-0.407C0.453,-0.188 0.651,0.032 0.85,0.254C0.994,-0.821 1.159,-1.99 1.323,-3.158C1.14,-3.22 1.012,-3.315 0.85,-3.472" style="fill:white;"/>
    </g>
    <g transform="matrix(7.05557,0,0,7.05557,192.75,378.487)">
        <path d="M0,-9.315C0.846,-8.665 1.626,-8.015 2.407,-7.438C2.211,-5.343 1.951,-3.25 1.691,-1.155C-1.821,-0.866 -2.342,0 -5.789,-1.588C-5.984,-1.3 -6.179,-1.011 -6.439,-0.794C-7.545,-1.444 -9.822,-4.188 -11.318,-4.549C-11.123,-4.766 -10.993,-4.982 -10.862,-5.272C-6.635,-2.961 -5.399,-2.816 -1.431,-2.672C-1.106,-3.827 -0.781,-5.055 -0.521,-6.282C-1.496,-6.715 -1.496,-6.715 -2.277,-6.499C-2.407,-8.232 -2.407,-8.232 -1.951,-9.315C-1.756,-8.882 -1.561,-8.448 -1.431,-8.087C-1.236,-8.448 -1.041,-8.882 -0.911,-9.315L0,-9.315" style="fill:white;"/>
    </g>
    <g transform="matrix(7.05557,0,0,7.05557,45.893,344.861)">
        <path d="M0,-0.722C0.26,-0.144 0.26,-0.144 -0.13,0C-0.065,-0.217 0,-0.433 0,-0.722" style="fill:white;"/>
    </g>
    <g transform="matrix(7.05557,0,0,7.05557,55.0737,363.709)">
        <path d="M0,-1.949C0.325,-1.299 0.585,-0.65 0.846,0C0.52,-0.072 0.195,-0.144 -0.13,-0.288C-0.065,-0.794 0,-1.371 0,-1.949" style="fill:white;"/>
    </g>
    <g transform="matrix(7.05557,0,0,7.05557,106.929,376.954)">
        <path d="M0,-1.877C0.585,-1.732 1.171,-1.588 1.756,-1.443L1.756,0C0.911,-0.144 0.065,-0.288 -0.845,-0.433C-0.911,-0.794 -1.041,-1.155 -1.17,-1.516C-0.78,-1.588 -0.39,-1.732 0,-1.877" style="fill:white;"/>
    </g>
    <g transform="matrix(-7.05557,0,0,7.05557,252.813,-5123.24)">
        <rect x="24.579" y="779.553" width="0.846" height="0.506" style="fill:white;"/>
    </g>
    <g transform="matrix(-7.05557,0,0,7.05557,203.713,-5109.47)">
        <rect x="21.067" y="778.614" width="0.911" height="0.433" style="fill:white;"/>
    </g>
    <g transform="matrix(7.05557,0,0,7.05557,100.966,467.139)">
        <path d="M0,-10.832C1.041,-10.038 1.041,-10.038 3.382,-6.21C3.187,-5.849 2.992,-5.561 2.731,-5.271C5.854,-4.261 5.659,-3.033 6.504,-0.722C4.943,0 4.943,0 3.772,0C3.317,-1.011 1.17,-3.322 2.471,-4.766C0.65,-6.86 -0.391,-7.221 -0.911,-10.832L0,-10.832" style="fill:white;"/>
    </g>
    <g transform="matrix(-7.05557,0,0,7.05557,433.182,-5075.85)">
        <rect x="37.589" y="775.726" width="0.39" height="1.444" style="fill:white;"/>
    </g>
    <g transform="matrix(7.05557,0,0,7.05557,183.573,427.908)">
        <path d="M0,-2.383C0.455,-2.166 0.911,-2.022 1.301,-1.878C1.236,-1.516 1.105,-1.155 0.976,-0.795C-1.236,-0.506 -3.447,-0.217 -5.659,0L-5.659,-1.444C-3.773,-1.733 -1.886,-2.022 0,-2.383" style="fill:white;"/>
    </g>
    <g transform="matrix(-6.93468,-1.3005,-1.3005,6.93468,42.8007,428.213)">
        <path d="M0.818,-1.801C-0.62,-1.189 -0.545,-0.882 -0.806,-0.196C-0.295,-0.1 0.23,-0.074 0.818,-0.038C0.922,-0.238 1.091,-0.427 1.258,-0.617C1.069,-1.019 0.944,-1.41 0.818,-1.801" style="fill:white;"/>
    </g>
    <g transform="matrix(0,7.05557,7.05557,0,203.622,447.955)">
        <path d="M-2.842,-1.997L1.997,-1.997L1.997,-2.451C0.409,-2.582 -1.18,-2.712 -2.842,-2.842L-2.842,-1.997" style="fill:white;"/>
    </g>
    <g transform="matrix(7.05557,0,0,7.05557,167.966,489.042)">
        <path d="M0,-8.159C0.13,-5.415 0.195,-2.671 0.26,0C-0.195,-3.826 -0.195,-3.826 0,-8.159" style="fill:white;"/>
    </g>
    <g transform="matrix(7.05557,0,0,7.05557,156.036,455.422)">
        <path d="M0,-3.394C-0.065,-2.239 -0.13,-1.083 -0.195,0C-0.325,-0.145 -0.456,-0.29 -0.65,-0.506C-0.39,-1.444 -0.195,-2.383 0,-3.394" style="fill:white;"/>
    </g>
    <g transform="matrix(7.05557,0,0,7.05557,79.3963,485.476)">
        <path d="M0,-3.321C0.715,-1.444 0.715,-1.444 0.715,0C-0.195,-2.31 -0.195,-2.31 0,-3.321" style="fill:white;"/>
    </g>
    <g transform="matrix(-6.99416,-0.92885,-0.92885,6.99416,148.365,581.69)">
        <path d="M1.991,-16.332C0.15,-12.352 -2.881,-1.391 1.757,0.245C0.752,-4.041 1.325,-6.879 1.991,-11.889C3.35,-15.206 3.35,-15.206 3.242,-15.875C2.801,-16.007 2.358,-16.137 1.991,-16.332" style="fill:white;"/>
    </g>
    <g transform="matrix(7.05557,0,0,7.05557,94.5376,522.163)">
        <path d="M0,-2.239C-0.195,-1.444 -0.455,-0.722 -0.715,0C-1.17,-0.145 -1.626,-0.361 -2.146,-0.578C-0.585,-1.3 -0.585,-1.3 0,-2.239" style="fill:white;"/>
    </g>
    <g transform="matrix(-7.05557,0,0,7.05557,237.679,-4851.17)">
        <rect x="23.279" y="760.273" width="1.301" height="0.505" style="fill:white;"/>
    </g>
    <g transform="matrix(-7.05557,0,0,7.05557,218.862,-4851.17)">
        <rect x="22.368" y="760.273" width="0.456" height="0.505" style="fill:white;"/>
    </g>
    <g transform="matrix(-7.05557,0,0,7.05557,206.924,-4851.17)">
        <rect x="21.522" y="760.273" width="0.456" height="0.505" style="fill:white;"/>
    </g>
    <g transform="matrix(-7.05557,0,0,7.05557,185.355,-4844.54)">
        <rect x="19.766" y="759.839" width="0.911" height="0.434" style="fill:white;"/>
    </g>
    <g transform="matrix(-7.05557,0,0,7.05557,148.638,-4844.54)">
        <rect x="17.164" y="759.839" width="0.911" height="0.434" style="fill:white;"/>
    </g>
    <g transform="matrix(7.05557,0,0,7.05557,167.966,624.057)">
        <path d="M0,-13.792C0.716,-10.109 2.212,-2.455 0.585,0C0.065,-1.516 0.326,-2.311 -1.431,-3.466C-1.431,-6.86 -0.455,-10.037 0,-13.792" style="fill:white;"/>
    </g>
    <g transform="matrix(7.05557,0,0,7.05557,119.322,552.73)">
        <path d="M0,-0.794C-0.26,-0.505 -0.585,-0.216 -0.911,0C-0.911,-0.145 -0.976,-0.289 -1.041,-0.505C-0.65,-0.578 -0.325,-0.65 0,-0.794" style="fill:white;"/>
    </g>
    <g transform="matrix(7.05557,0,0,7.05557,106.929,567.507)">
        <path d="M0,-1.444C-0.195,-0.939 -0.39,-0.433 -0.65,0C-0.585,-1.156 -0.585,-1.156 0,-1.444" style="fill:white;"/>
    </g>
    <g transform="matrix(7.05557,0,0,7.05557,134.466,565.469)">
        <path d="M0,-0.722C-0.26,0 -0.26,0 -0.65,-0.072C-0.39,-0.289 -0.195,-0.506 0,-0.722" style="fill:white;"/>
    </g>
    <g transform="matrix(-6.71132,2.17699,2.17699,6.71132,61.6127,587.868)">
        <path d="M0.268,-3.652C-0.122,-2.539 -0.122,-2.539 -0.209,0.146C-0.063,0.175 0.083,0.203 0.268,0.143C0.575,-1.019 0.86,-2.25 1.144,-3.481C0.853,-3.538 0.56,-3.595 0.268,-3.652" style="fill:white;"/>
    </g>
    <g transform="matrix(-7.05557,0,0,7.05557,338.178,-4742.64)">
        <rect x="30.629" y="752.618" width="0.845" height="0.434" style="fill:white;"/>
    </g>
    <g transform="matrix(7.05557,0,0,7.05557,30.2896,596.037)">
        <path d="M0,-1.661C0.065,-1.083 0.13,-0.505 0.195,0L-0.521,0C-0.521,-1.3 -0.521,-1.3 0,-1.661" style="fill:rgb(35,31,32);"/>
    </g>
    <g transform="matrix(-7.05557,0,0,7.05557,255.565,-4695.27)">
        <rect x="24.969" y="749.225" width="0.456" height="0.505" style="fill:white;"/>
    </g>
    <g transform="matrix(-7.05557,0,0,7.05557,359.754,-4688.13)">
        <rect x="31.475" y="748.719" width="2.211" height="0.505" style="fill:white;"/>
    </g>
    <g transform="matrix(7.05557,0,0,7.05557,149.611,814.095)">
        <path d="M0,-30.184C1.951,-28.595 1.691,-27.945 1.756,-26.285C-2.016,-25.635 -0.715,-19.641 -0.846,-16.175C-1.236,-16.103 -1.626,-16.031 -2.016,-16.031C-2.211,-14.442 -2.407,-12.926 -2.602,-11.409C-2.992,-11.337 -3.382,-11.265 -3.772,-11.265C-3.578,-8.449 -3.252,-8.16 -2.992,-0.794C-3.252,-0.65 -3.578,-0.505 -3.903,-0.434C-4.813,-2.383 -4.033,-3.755 -4.098,-6.065C-4.293,-6.282 -4.488,-6.499 -4.683,-6.715C-5.204,-6.571 -5.789,-6.499 -6.374,-6.427C-6.634,-4.116 -6.31,-3.827 -6.374,0C-7.22,-0.939 -10.472,-4.261 -7.871,-5.705L-7.871,-7.366C-8.13,-7.366 -8.391,-7.437 -8.651,-7.51L-8.651,-8.521C-8.196,-8.521 -7.806,-8.521 -7.415,-8.593L-7.415,-10.76C-7.806,-10.76 -8.196,-10.831 -8.651,-10.904L-8.651,-11.843C-8.065,-11.843 -7.545,-11.914 -7.025,-11.987C-7.09,-12.492 -7.22,-12.998 -7.35,-13.503C-7.806,-13.648 -8.261,-13.864 -8.781,-14.081C-8.781,-17.33 -9.692,-19.136 -10.472,-22.818C-10.862,-22.818 -11.252,-22.891 -11.708,-22.963C-11.708,-23.613 -11.773,-24.263 -11.838,-24.985C-11.448,-25.057 -11.123,-25.202 -10.797,-25.346C-10.147,-22.385 -7.09,-23.107 -5.724,-23.035C-5.594,-23.324 -5.464,-23.685 -5.333,-24.046C-6.439,-24.263 -7.545,-24.551 -8.651,-24.84L-8.651,-25.851C-5.529,-25.923 -0.65,-25.635 0,-30.184" style="fill:white;"/>
    </g>
    <g transform="matrix(-7.05557,0,0,7.05557,338.185,-4667.75)">
        <rect x="30.174" y="747.275" width="1.756" height="0.505" style="fill:white;"/>
    </g>
    <g transform="matrix(-7.05557,0,0,7.05557,249.61,-4664.69)">
        <rect x="24.58" y="746.842" width="0.39" height="0.938" style="fill:white;"/>
    </g>
    <g transform="matrix(7.05557,0,0,7.05557,137.677,624.063)">
        <path d="M0,-1.806L0,-0.795C-2.602,0 -2.602,0 -3.317,-0.362C-2.406,-1.373 -1.041,-1.228 0,-1.806" style="fill:white;"/>
    </g>
    <g transform="matrix(-7.05557,0,0,7.05557,203.72,-4620.37)">
        <rect x="20.222" y="743.953" width="2.602" height="0.434" style="fill:white;"/>
    </g>
    <g transform="matrix(7.05557,0,0,7.05557,152.822,645.458)">
        <path d="M0,-0.939C0.846,-0.506 0.846,-0.506 0.846,0L-0.455,0C-0.26,-0.289 -0.13,-0.578 0,-0.939" style="fill:white;"/>
    </g>
    <g transform="matrix(7.05557,0,0,7.05557,171.181,679.594)">
        <path d="M0,-5.344C0.715,-2.961 0.715,-2.961 0.65,-0.795C0.195,-0.506 -0.325,-0.217 -0.846,0C-0.715,-0.361 -0.65,-0.722 -0.585,-1.156C-1.171,-2.022 -1.366,-2.094 -3.057,-2.672C-2.472,-2.744 -1.886,-2.888 -1.366,-3.033C-1.301,-3.755 -1.301,-4.55 -1.301,-5.344L0,-5.344" style="fill:white;"/>
    </g>
    <g transform="matrix(-5.38913,-4.55393,-4.55393,5.38913,115.777,653.692)">
        <path d="M-0.603,-1.376C-0.932,-1.087 -1.214,-0.853 -1.497,-0.619L-0.603,0.137C-0.32,-0.097 0.012,-0.289 0.391,-0.536L-0.603,-1.376" style="fill:rgb(35,31,32);"/>
    </g>
    <g transform="matrix(-7.05557,0,0,7.05557,218.862,-4552.6)">
        <rect x="22.368" y="739.115" width="0.456" height="0.505" style="fill:white;"/>
    </g>
    <g transform="matrix(7.05557,0,0,7.05557,24.3262,706.593)">
        <path d="M0,-6.282C0.455,-2.455 0.78,-3.322 3.057,-2.888L3.057,0C0.715,-0.65 -1.952,-2.599 0,-6.282" style="fill:white;"/>
    </g>
    <g transform="matrix(-6.85,-1.69073,-1.69073,6.85,145.287,704.95)">
        <path d="M-0.651,-5.35C-0.957,-3.567 -1.246,-1.852 -1.535,-0.139L-0.651,0.079L0.613,-5.038L-0.651,-5.35" style="fill:white;"/>
    </g>
    <g transform="matrix(-7.05557,0,0,7.05557,368.927,-4518.48)">
        <rect x="32.775" y="736.733" width="0.911" height="0.433" style="fill:rgb(35,31,32);"/>
    </g>
    <g transform="matrix(-7.05557,0,0,7.05557,301.468,-4514.91)">
        <rect x="28.027" y="736.227" width="0.846" height="0.939" style="fill:rgb(35,31,32);"/>
    </g>
    <g transform="matrix(-7.05557,0,0,7.05557,353.785,-4504.71)">
        <rect x="31.93" y="735.721" width="0.455" height="0.505" style="fill:rgb(35,31,32);"/>
    </g>
    <g transform="matrix(-7.05557,0,0,7.05557,295.492,-4481.28)">
        <rect x="27.571" y="733.844" width="0.911" height="0.938" style="fill:rgb(35,31,32);"/>
    </g>
    <g transform="matrix(-5.71122,-4.14283,-4.14283,5.71122,167.818,725.456)">
        <path d="M0.131,-3.208C-1.804,-2.202 -1.836,-2.047 -1.883,-0.653C-0.87,-0.721 -0.87,-0.721 0.131,0.004L1.446,-1.808C0.962,-2.248 0.519,-2.747 0.131,-3.208" style="fill:white;"/>
    </g>
    <g transform="matrix(7.05557,0,0,7.05557,140.433,793.713)">
        <path d="M0,-11.409C0.65,-10.975 1.301,-10.542 1.951,-10.109C1.951,-8.737 1.626,-8.448 1.431,-6.21C1.821,-6.138 2.211,-6.065 2.602,-6.065L2.602,-1.3C2.082,-0.866 1.496,-0.433 0.911,0C0.195,-9.387 -0.13,-9.748 0,-11.409" style="fill:white;"/>
    </g>
    <g transform="matrix(7.05557,0,0,7.05557,64.2515,726.975)">
        <path d="M0,-1.95C-0.455,0 -0.455,0 -0.911,0L-0.911,-1.95L0,-1.95" style="fill:white;"/>
    </g>
    <g transform="matrix(-5.24184,-4.72273,-4.72273,5.24184,155.004,739.864)">
        <path d="M-0.481,-1.629C-0.819,-1.35 -1.157,-1.071 -1.447,-0.847C-1.158,-0.489 -0.819,-0.087 -0.481,0.315L0.148,-0.383C-0.094,-0.795 -0.335,-1.207 -0.481,-1.629" style="fill:white;"/>
    </g>
    <g transform="matrix(7.05557,0,0,7.05557,73.4294,740.73)">
        <path d="M0,-1.011L0,0C-0.521,-0.217 -1.106,-0.433 -1.691,-0.722C-1.106,-0.795 -0.521,-0.867 0,-1.011" style="fill:white;"/>
    </g>
    <g transform="matrix(-7.05557,0,0,7.05557,378.099,-4273.93)">
        <rect x="33.685" y="718.897" width="0.391" height="1.444" style="fill:white;"/>
    </g>
    <g transform="matrix(7.05557,0,0,7.05557,165.214,849.252)">
        <path d="M0,-2.889C0.26,-2.384 0.521,-1.878 0.716,-1.445C0.521,-0.939 0.26,-0.434 0,0L-1.301,0L-1.301,-2.889L0,-2.889" style="fill:rgb(35,31,32);"/>
    </g>
    <g transform="matrix(-7.00945,0.805446,0.805446,7.00945,110.596,900.173)">
        <path d="M-0.323,-3.375C-0.622,-3.124 -0.863,-2.95 -1.106,-2.777C-0.86,-1.787 -0.624,-0.87 -0.323,0.041C-0.009,-0.068 0.306,-0.176 0.612,-0.358C0.497,-1.362 0.795,-2.195 -0.323,-3.375" style="fill:white;"/>
    </g>
    <g transform="matrix(7.05557,0,0,7.05557,91.7852,940.955)">
        <path d="M0,-4.838C0.39,-4.549 0.716,-4.26 1.041,-3.972C0.976,-2.599 0.911,-1.299 0.846,0C-0.585,-0.289 -0.585,-0.289 -1.431,-1.227C-1.301,-2.311 -1.171,-3.394 -1.041,-4.477C-0.65,-4.549 -0.325,-4.693 0,-4.838" style="fill:rgb(35,31,32);"/>
    </g>
    <g transform="matrix(7.05557,0,0,7.05557,131.252,959.299)">
        <path d="M0,-6.427C3.383,-4.044 2.602,-2.528 1.496,0L-0.13,0C-0.78,-1.228 -2.796,-4.91 0,-6.427" style="fill:rgb(35,31,32);"/>
    </g>
    <g transform="matrix(7.05557,0,0,7.05557,94.5376,932.805)">
        <path d="M0,-2.672C-0.13,-1.733 -0.26,-0.867 -0.39,0C-0.845,-0.722 -1.041,-0.867 -0.845,-2.672L0,-2.672" style="fill:white;"/>
    </g>
</svg>
