<?xml version="1.0" encoding="UTF-8" standalone="no"?>
<!DOCTYPE svg PUBLIC "-//W3C//DTD SVG 1.1//EN" "http://www.w3.org/Graphics/SVG/1.1/DTD/svg11.dtd">
<svg width="100%" height="100%" viewBox="0 0 1000 1000" version="1.1" xmlns="http://www.w3.org/2000/svg" xmlns:xlink="http://www.w3.org/1999/xlink" xml:space="preserve" xmlns:serif="http://www.serif.com/" style="fill-rule:evenodd;clip-rule:evenodd;stroke-linejoin:round;stroke-miterlimit:2;">
    <g transform="matrix(7.05557,0,0,7.05557,881.469,897.434)">
        <path d="M0,6.033C-0.306,5.804 -0.535,5.575 -0.764,5.346C-0.764,3.437 -0.764,3.207 0,2.215L0.229,2.215L0.229,4.735C0.84,5.04 1.68,4.735 2.443,4.353C2.443,3.284 2.138,1.757 1.909,1.528C1.298,1.604 0.764,1.68 0.229,1.757C-0.687,0.84 1.146,0 2.214,0C2.443,0.229 2.673,0.458 2.978,0.687C2.978,1.909 3.055,3.131 3.131,4.429C2.673,4.811 2.214,5.193 1.832,5.651C1.222,5.727 0.61,5.88 0,6.033" style="fill:rgb(35,31,32);"/>
    </g>
    <g transform="matrix(7.05557,0,0,7.05557,847.521,855.41)">
        <path d="M0,2.596C-0.916,1.221 -0.764,0 0.84,1.069C0.84,1.756 0.458,2.367 0,2.596" style="fill:rgb(35,31,32);"/>
    </g>
    <g transform="matrix(6.57196,2.56719,2.56719,-6.57196,867.482,870.586)">
        <path d="M0.941,-0.11C0.517,0.134 0.122,0.307 -0.203,0.509C-1.63,2.903 -1.904,4.025 0.941,5.136C1.306,4.623 3.072,2.199 2.213,1.043C1.77,0.705 1.355,0.297 0.941,-0.11" style="fill:rgb(35,31,32);"/>
    </g>
    <g transform="matrix(7.05557,0,0,7.05557,872.842,843.551)">
        <path d="M0,3.208C-0.152,2.902 -0.305,2.597 -0.458,2.368L-0.458,0.917C0.077,0.611 0.229,0 1.223,0C1.375,0.229 1.527,0.458 1.757,0.688C1.757,1.222 1.757,1.833 1.833,2.444C0.917,2.444 0.459,3.131 0,3.208" style="fill:white;"/>
    </g>
    <g transform="matrix(7.05557,0,0,7.05557,903.021,827.387)">
        <path d="M0,1.375C-0.153,1.299 -0.229,1.223 -0.306,1.223C-0.382,0.993 -0.382,0.764 -0.382,0.535C0.152,0 -0.382,0.229 0.61,0L0.61,1.07C0.382,1.146 0.152,1.223 0,1.375" style="fill:rgb(35,31,32);"/>
    </g>
    <g transform="matrix(5.87157,3.91225,3.91225,-5.87157,851.879,830.951)">
        <path d="M0.286,-0.029C0.096,0.119 -0.094,0.268 -0.285,0.416C-0.222,0.734 -0.095,0.819 0.286,1.073L0.71,0.437C0.519,0.31 0.371,0.12 0.286,-0.029" style="fill:rgb(35,31,32);"/>
    </g>
    <g transform="matrix(7.05557,0,0,7.05557,873.924,56.9153)">
        <path d="M0,109.201C-1.985,108.208 -0.917,107.521 -1.299,106.758C-2.139,105.917 -1.985,105.688 -1.833,105.383C-1.299,105.459 -0.764,105.535 -0.153,105.612C0.076,105.383 0.306,105.23 0.534,105.077C0.382,105.001 0.306,104.925 0.229,104.925C0.229,104.772 0.229,104.619 0.306,104.543C-0.229,104.696 -0.764,104.925 -1.222,105.154C-1.681,105.077 -2.139,105.001 -2.597,104.925C-2.979,104.39 -3.36,103.855 -3.666,103.321C-3.895,102.328 -4.124,101.87 -4.582,101.412C-4.888,100.114 -5.498,99.121 -5.728,98.816C-6.721,94.463 -6.721,97.365 -7.942,96.754C-7.942,95.379 -8.247,94.463 -8.553,93.852C-8.858,93.546 -9.088,93.317 -9.316,93.088C-8.782,92.554 -9.316,92.783 -8.095,92.554C-7.484,92.096 -6.873,91.638 -6.262,91.179C-6.186,90.11 -6.109,89.041 -6.033,87.972C-6.415,87.896 -6.721,87.896 -7.025,87.896C-7.102,87.59 -7.179,87.284 -7.255,87.055C-9.47,86.216 -9.012,85.91 -9.012,84.154C-8.935,84.077 -8.858,84.001 -8.706,83.925C-8.782,82.856 -8.858,81.786 -8.858,80.794C-8.706,80.717 -8.477,80.717 -8.247,80.717L-8.247,80.412C-10.691,77.968 -10.768,74.379 -8.935,72.088C-9.088,71.248 -9.24,70.408 -9.393,69.568C-8.935,69.186 -8.4,68.805 -7.866,68.499C-7.866,67.048 -7.789,67.277 -6.873,66.59C-7.484,64.91 -8.019,63.306 -8.553,61.702L-9.012,61.702C-9.164,61.321 -9.316,60.939 -9.393,60.557C-10.997,58.572 -11.684,56.433 -12.142,54.83C-12.295,53.761 -12.371,52.692 -12.447,51.699C-12.371,49.637 -12.295,47.652 -12.142,45.666C-11.989,45.513 -11.837,45.361 -11.607,45.208C-11.531,44.903 -11.455,44.597 -11.379,44.292C-11.76,44.368 -12.142,44.444 -12.447,44.521C-12.677,44.368 -12.905,44.215 -13.059,44.062C-13.135,43.604 -13.211,43.222 -13.211,42.841C-12.905,42.535 -12.524,42.23 -12.142,41.924L-12.142,41.542C-12.524,41.39 -12.905,41.237 -13.211,41.16C-13.211,37.801 -13.898,38.259 -10.614,38.03L-8.095,37.343L-8.095,36.655C-10.386,36.655 -11.989,37.19 -13.746,37.19C-14.738,37.037 -15.654,36.884 -16.571,36.731C-16.724,36.502 -16.8,36.273 -16.877,36.044C-16.495,35.891 -16.113,35.739 -15.731,35.662C-15.731,33.6 -17.259,32.379 -18.404,31.844C-18.785,31.844 -19.167,31.92 -19.473,31.997C-19.55,32.226 -20.084,32.15 -19.778,33.066C-19.626,33.448 -19.396,33.829 -19.167,34.288C-20.466,34.288 -20.466,32.455 -20.466,32.379C-20.618,32.302 -20.694,32.226 -20.771,32.226C-20.924,30.851 -21,29.477 -21.076,28.102C-21.382,28.713 -21.229,29.018 -21.382,30.241C-21.611,30.241 -21.764,30.317 -21.917,30.393C-23.139,29.782 -24.818,28.408 -25.276,28.026C-25.276,27.644 -25.812,27.492 -26.04,27.339C-26.116,26.728 -26.193,26.117 -26.27,25.506C-28.713,25.811 -32.303,27.797 -33.906,27.033C-34.364,26.575 -34.517,26.88 -34.975,26.651C-36.273,27.186 -37.571,27.721 -38.793,28.255C-40.702,28.255 -43.451,28.255 -44.368,27.339L-44.597,27.339C-45.055,26.193 -45.896,25.659 -46.277,25.43C-46.43,25.201 -46.582,24.972 -46.735,24.742C-46.964,24.742 -47.117,24.819 -47.27,24.895C-48.187,25.506 -49.103,26.117 -50.019,26.804C-50.4,26.499 -50.706,26.269 -51.012,26.04C-51.47,26.422 -51.852,26.88 -52.233,27.339C-52.615,27.415 -52.921,27.492 -53.226,27.644C-55.822,27.644 -57.12,26.346 -56.815,24.513C-56.356,23.749 -55.822,22.986 -55.288,22.299C-55.517,22.146 -55.746,22.07 -55.898,21.993C-55.975,22.222 -56.052,22.528 -56.128,22.833L-56.968,22.833C-57.044,22.528 -57.12,22.299 -57.12,22.07C-57.961,21.917 -58.266,22.146 -58.571,22.451C-60.175,22.528 -61.474,22.451 -62.161,23.52C-64.07,23.979 -65.979,24.895 -67.583,25.048C-67.965,25.277 -68.347,25.506 -68.651,25.811C-70.484,26.04 -72.241,26.269 -73.997,26.499C-75.524,25.124 -77.052,23.749 -78.579,22.451C-79.189,21.229 -78.655,19.931 -78.655,19.397C-79.037,19.015 -79.267,19.244 -79.267,19.244C-79.343,20.542 -79.343,21.841 -79.343,23.138C-79.571,23.291 -79.725,23.444 -79.877,23.597C-81.48,23.826 -81.939,23.749 -82.321,25.048C-82.779,25.277 -83.467,25.201 -83.771,25.048L-83.771,23.291L-84.077,23.291C-84.229,24.055 -84.307,24.819 -84.383,25.582C-84.917,25.811 -85.299,25.582 -85.834,25.582C-86.368,25.048 -85.91,24.208 -85.91,23.902L-86.597,23.902C-86.674,24.513 -86.75,25.201 -86.826,25.888C-87.132,25.888 -87.438,25.888 -87.666,25.964C-88.506,25.124 -88.277,24.666 -88.354,24.208C-88.583,24.131 -88.735,24.131 -88.888,24.131C-88.888,24.284 -88.965,25.659 -89.347,25.811C-89.651,25.735 -89.957,25.735 -90.263,25.735C-90.492,25.124 -90.645,24.513 -90.797,23.902C-91.103,23.979 -91.332,24.055 -91.561,24.208C-91.638,24.742 -91.714,25.277 -91.714,25.888C-93.47,25.888 -95.837,23.291 -96.066,22.451C-96.906,21.612 -96.524,21.153 -96.678,20.542C-98.128,19.855 -98.128,21.841 -98.587,22.757C-98.281,22.986 -97.899,23.215 -97.518,23.444C-97.594,23.902 -97.67,24.36 -97.746,24.895C-98.587,24.895 -99.427,24.895 -100.19,24.972C-100.343,24.742 -100.496,24.513 -100.572,24.284C-100.343,24.055 -100.419,23.826 -100.496,23.749C-100.954,23.826 -101.336,23.902 -101.718,23.979L-101.718,24.36L-103.474,24.36C-103.551,23.749 -103.627,23.138 -103.627,22.604C-109.201,22.451 -114.775,22.375 -120.351,22.299C-121.419,22.833 -122.183,22.451 -122.488,22.222C-122.564,21.917 -122.642,21.688 -122.642,21.459C-122.412,20.389 -121.954,20.237 -121.267,20.16C-120.885,20.389 -120.503,20.695 -120.121,21C-114.623,21.153 -109.125,21.306 -103.627,21.535L-103.627,20.389C-105.154,20.313 -106.682,20.237 -108.209,20.16C-108.59,19.779 -108.285,19.473 -108.132,19.168L-103.627,19.168C-103.703,18.557 -103.779,17.946 -103.779,17.411C-105.994,17.411 -108.132,17.182 -109.889,17.564C-110.041,18.099 -110.117,18.633 -110.194,19.244C-110.958,19.321 -111.645,19.397 -112.332,19.473C-112.408,19.397 -112.484,19.321 -112.562,19.244C-112.638,18.557 -112.714,17.869 -112.79,17.259C-112.943,17.335 -113.096,17.411 -113.248,17.564C-114.471,17.564 -114.699,18.099 -115.311,18.099C-115.387,17.946 -115.463,17.869 -115.539,17.793C-115.692,17.793 -115.845,17.793 -115.997,17.869C-115.997,18.328 -116.914,18.48 -117.296,19.015C-117.602,18.939 -117.906,18.862 -118.136,18.786L-118.136,18.251C-118.594,18.328 -118.976,18.48 -119.357,18.633C-119.663,18.557 -119.969,18.48 -120.274,18.404C-120.351,17.488 -120.427,16.572 -120.427,15.655C-119.815,12.829 -120.274,9.088 -120.427,6.873C-121.725,6.186 -123.328,5.957 -123.71,5.804C-123.787,5.04 -123.863,4.277 -123.863,3.589C-121.725,3.513 -119.51,3.437 -117.296,3.437C-117.372,3.208 -117.448,2.978 -117.448,2.749C-117.22,2.673 -116.99,2.597 -116.685,2.52C-114.317,2.826 -111.95,3.131 -109.507,3.513C-107.674,3.36 -105.841,3.284 -104.009,3.208C-103.855,2.826 -103.703,2.444 -103.551,2.138C-101.183,2.215 -98.739,2.291 -96.296,2.368C-94.769,2.444 -93.165,2.597 -91.561,2.749C-90.874,2.673 -87.36,2.597 -86.216,2.826C-85.604,2.749 -84.917,2.673 -84.229,2.597C-84.229,2.291 -84.153,1.986 -84.077,1.757C-81.252,1.986 -78.35,2.291 -75.448,2.597C-74.914,3.131 -67.201,3.589 -66.056,3.666C-65.979,3.589 -65.902,3.513 -65.75,3.513C-65.521,3.513 -65.292,3.589 -64.986,3.666L-64.986,2.902C-64.604,2.749 -64.223,2.597 -63.841,2.52C-63.307,3.055 -62.771,2.826 -62.161,2.826C-61.244,1.909 -61.626,2.062 -59.488,2.52C-58.647,2.52 -57.273,2.368 -56.052,3.131C-50.935,2.978 -45.742,2.902 -40.55,2.826C-40.32,2.749 -40.092,2.673 -39.786,2.673C-37.037,2.826 -34.211,2.978 -31.386,3.131C-30.852,3.895 -30.928,4.048 -29.4,4.811C-29.4,5.269 -29.706,5.498 -30.012,5.728C-29.171,6.11 -27.109,4.811 -25.964,4.277C-24.208,3.895 -21.306,4.201 -19.015,3.437C-18.022,3.36 -17.029,3.284 -16.037,3.208L-16.037,2.902C-14.738,2.291 -13.44,1.299 -11.913,0.764C-11.684,0.764 -11.379,0.84 -11.073,0.917C-11.073,1.757 -11.073,2.597 -10.997,3.513C-11.531,3.819 -11.989,4.124 -12.447,4.506C-11.913,5.04 -11.455,5.117 -10.844,5.346C-10.08,4.888 -8.706,3.208 -7.637,3.208L-7.637,2.902C-6.721,2.444 -5.728,1.986 -4.734,1.528C-4.2,1.375 -3.666,1.222 -3.055,1.069C-3.055,0 2.062,0.611 3.207,0.611C3.207,0.764 3.283,0.917 3.36,1.146C3.971,1.146 5.728,1.069 6.72,0.764C6.949,0.764 7.178,0.84 7.407,0.917C7.713,2.291 8.477,2.902 10.996,3.666C10.996,4.048 12.218,4.277 12.371,4.277C12.601,4.659 12.905,5.728 13.517,6.033C13.898,6.95 14.28,7.866 14.738,8.782C15.35,9.012 15.96,9.317 16.647,9.622L16.647,10.309C15.96,11.379 15.884,11.761 17.793,13.135C17.793,13.364 17.793,13.593 17.869,13.822C15.73,14.51 16.495,15.579 17.105,17.488C17.487,17.869 17.641,18.175 17.641,18.709C17.258,18.939 16.876,19.244 16.495,19.55C16.647,21 16.8,22.451 17.029,23.902C16.647,24.055 16.266,24.208 15.884,24.437C15.884,25.048 15.426,29.859 14.509,30.317C13.669,32.532 11.913,34.059 10.691,35.968C10.31,36.808 9.546,37.724 9.851,38.946C10.08,38.869 10.31,38.793 10.614,38.793C10.844,39.022 11.073,39.328 11.378,39.633C12.447,39.71 13.975,39.786 12.677,41.695C12.677,41.848 12.677,42.001 12.753,42.23C13.898,42.459 13.898,41.924 14.204,43.604C14.128,43.68 13.669,43.91 13.898,44.597C14.28,44.674 14.662,44.75 15.044,44.826C15.12,45.361 15.35,45.743 14.968,46.277C15.12,46.812 15.272,47.346 15.426,47.881C15.196,48.11 15.12,48.034 15.12,48.644C14.814,48.568 14.509,48.492 14.28,48.415C14.28,47.881 13.898,47.346 13.822,47.346C13.517,46.659 13.211,46.048 12.982,45.437C12.905,45.361 12.829,45.361 12.753,45.361C12.065,43.375 10.614,40.473 9.698,39.786C9.622,39.863 9.546,40.015 9.469,40.168C10.386,41.084 10.768,42.993 12.218,44.826C12.371,45.666 13.059,47.194 13.822,48.339C13.898,48.339 13.975,48.339 14.128,48.415L14.128,49.179C13.898,49.179 13.669,49.179 13.517,49.255C13.517,49.637 13.517,50.096 13.593,50.554L12.447,53.99C10.996,53.99 10.92,56.128 10.844,57.426C10.08,57.655 8.629,59.488 8.477,59.87C8.4,59.946 8.323,60.022 8.247,60.175C9.011,60.328 9.774,60.481 10.538,60.71C10.614,61.092 10.691,61.473 10.768,61.855C11.073,61.626 11.837,60.251 12.677,60.481C12.829,60.863 13.287,61.015 13.287,62.008C12.523,62.389 12.065,63.764 11.149,64.07C11.226,64.146 11.378,64.222 11.531,64.375C12.218,64.146 12.982,63.383 14.128,63.383C14.204,63.841 14.356,64.375 14.509,64.91C13.745,65.674 12.447,65.903 12.218,66.361C12.218,67.124 13.287,66.895 14.509,67.048C14.509,67.43 14.586,68.117 14.28,68.805L12.142,68.805C10.691,70.255 12.829,70.866 13.822,72.928C14.28,72.47 15.044,73.157 15.654,74.074C15.654,74.379 15.73,74.684 15.808,74.99C15.73,75.295 15.654,75.601 15.654,75.907C15.96,75.601 16.112,73.845 16.953,75.601C16.953,77.433 14.128,82.015 12.295,83.008C11.302,83.008 11.149,82.321 10.996,81.939C10.004,81.939 9.24,81.099 8.935,80.947C8.935,80.717 8.935,80.488 9.011,80.336C8.477,80.106 7.941,79.877 7.407,79.724C6.873,80.336 6.415,81.023 5.956,81.71C5.651,82.015 5.422,82.015 5.192,82.015C5.192,80.717 4.811,79.495 4.658,79.343C4.582,79.572 4.506,79.801 4.506,80.03C4.582,81.786 4.888,83.39 4.734,85.758C4.811,86.063 4.888,86.445 4.964,86.826C4.658,86.979 4.429,87.208 4.2,87.437C2.673,87.59 1.146,87.743 -0.306,87.972C-1.527,87.59 -2.673,87.208 -3.818,86.826C-4.2,85.987 -4.888,86.139 -4.888,86.139C-5.193,88.125 -5.422,90.11 -5.651,92.096C-5.498,93.776 -5.346,95.455 -5.116,97.212C-5.04,97.288 -4.964,97.441 -4.888,97.594C-4.888,94.921 -4.812,92.248 -4.734,89.576L-3.818,89.576C-2.673,90.339 -0.84,90.645 1.222,90.645C2.215,90.339 3.207,90.034 4.2,89.805C4.582,89.652 5.04,89.499 5.498,89.347C5.498,89.576 5.498,89.805 5.574,90.11C7.102,92.706 8.4,96.906 7.178,100.419C6.109,100.954 5.116,100.495 4.429,100.19C4.353,98.892 4.658,97.594 4.658,96.678C4.506,96.219 4.353,95.761 4.276,95.303C4.124,95.226 3.971,95.15 3.818,95.15C3.283,95.455 2.825,95.761 2.367,96.066C1.222,96.296 0.152,96.525 -0.917,96.83C-0.917,97.823 -0.306,99.121 0.229,100.572C0.61,100.572 0.84,101.335 0.916,101.641C1.451,102.176 1.68,102.405 1.527,103.168C1.146,103.55 0.764,103.932 0.458,104.39C0.764,104.237 1.069,104.161 1.451,104.085C1.451,103.855 1.527,103.626 1.604,103.474L1.985,103.474C2.138,103.779 2.291,104.161 2.443,104.543C2.291,104.543 2.215,104.619 2.138,104.696C2.138,105.306 2.673,105.688 2.673,106.987C2.52,107.75 1.985,108.132 1.604,108.896C1.069,108.972 0.534,109.048 0,109.201" style="fill:rgb(35,31,32);"/>
    </g>
    <g transform="matrix(7.05557,0,0,7.05557,874.999,803.685)">
        <path d="M0,2.291C-0.152,2.062 -0.306,1.909 -0.458,1.756L-0.687,1.756L-0.687,1.145C-0.229,0.916 0.306,0.764 0.84,0.611C0.993,0.535 1.146,0 1.757,0.305C1.757,0.993 1.375,1.451 0.917,2.062C0.611,2.138 0.306,2.214 0,2.291" style="fill:white;"/>
    </g>
    <g transform="matrix(7.05557,0,0,7.05557,905.171,783.748)">
        <path d="M0,1.833C-0.534,0.993 -0.458,0.916 -0.534,0.458C-0.305,0.229 0.459,0.458 1.146,0.458C1.604,0.306 1.909,0 2.749,0C2.826,0.077 2.902,0.153 2.979,0.229C2.902,0.458 2.826,0.687 2.749,0.993C2.368,1.146 1.986,1.298 1.604,1.527C1.069,1.604 0.535,1.68 0,1.833" style="fill:rgb(35,31,32);"/>
    </g>
    <g transform="matrix(0,-7.05557,-7.05557,0,864.762,784.829)">
        <path d="M-0.152,0.535L0.459,0.535C0.535,0.458 0.535,0.306 0.535,0.152L0.077,0.152C0.001,0.306 -0.075,0.458 -0.152,0.535" style="fill:white;"/>
    </g>
    <g transform="matrix(7.05557,0,0,7.05557,910.559,767.582)">
        <path d="M0,1.986C-1.222,1.528 -1.756,0.84 -1.374,0.077C-1.222,0 -1.068,0 -0.84,0C-0.305,0.688 0.077,0.459 1.146,0.611C1.604,0.382 2.215,0.153 2.215,1.375C1.451,1.528 0.687,1.757 0,1.986" style="fill:rgb(35,31,32);"/>
    </g>
    <g transform="matrix(7.05557,0,0,7.05557,808.729,749.804)">
        <path d="M0,1.68C-0.611,1.069 -0.229,0.382 -0.229,0.382C-0.076,0.229 0.382,0 1.069,0.534L1.069,1.222C0.916,1.298 0.84,1.374 0.764,1.527C0.458,1.527 0.229,1.604 0,1.68" style="fill:rgb(35,31,32);"/>
    </g>
    <g transform="matrix(7.05557,0,0,7.05557,806.572,715.86)">
        <path d="M0,4.2C-1.604,3.055 -2.214,1.68 -1.451,0.535C-1.146,0.382 -0.84,0 0.076,0.458C0.153,0.535 0.306,0.687 0.458,0.84C0.611,1.222 1.299,2.444 0.84,3.818C0.534,3.895 0.229,4.048 0,4.2" style="fill:rgb(35,31,32);"/>
    </g>
    <g transform="matrix(7.05557,0,0,7.05557,804.96,725.561)">
        <path d="M0,1.68C-0.229,1.374 -0.459,1.145 -0.687,0.916C-0.764,0.611 -0.764,0.305 -0.764,0L-0.153,0C0,0.534 0.152,1.069 0.382,1.68L0,1.68" style="fill:white;"/>
    </g>
    <g transform="matrix(7.05557,0,0,7.05557,866.917,711.008)">
        <path d="M0,3.208C-0.764,2.444 -0.458,0.764 -0.458,0L-0.229,0C-0.152,1.07 -0.076,2.139 0,3.208" style="fill:white;"/>
    </g>
    <g transform="matrix(7.05557,0,0,7.05557,904.634,694.311)">
        <path d="M0,2.367C0.076,1.527 0.153,0.763 0.229,0C0.153,0.763 0.076,1.527 0,2.367" style="fill:white;"/>
    </g>
    <g transform="matrix(7.05557,0,0,7.05557,864.223,700.773)">
        <path d="M0,1.375C-0.076,0.917 -0.076,0.458 -0.076,0C0.229,0.306 0.153,1.375 0,1.375" style="fill:white;"/>
    </g>
    <g transform="matrix(7.05557,0,0,7.05557,866.917,670.066)">
        <path d="M0,0.458C0,0.305 0.076,0.152 0.153,0C0.153,0.076 0.229,0.152 0.306,0.305C0.153,0.305 0.076,0.381 0,0.458" style="fill:white;"/>
    </g>
    <g transform="matrix(0,-7.05557,-7.05557,0,891.429,661.714)">
        <path d="M-1.107,3.398L-0.725,3.398C0.649,2.634 2.635,1.871 3.398,1.107C2.33,1.641 1.26,2.175 0.191,2.711C-0.114,2.711 -1.031,3.169 -1.107,3.398" style="fill:white;"/>
    </g>
    <g transform="matrix(3.15351,6.31161,6.31161,-3.15351,812.835,658.552)">
        <path d="M1.233,0.526C0.687,-0.567 -1.568,0.559 -0.099,2.301C0.344,2.336 0.925,2.473 1.233,2.063C1.164,1.755 1.097,1.448 1.097,1.106C1.097,0.936 1.165,0.73 1.233,0.526" style="fill:white;"/>
    </g>
    <g transform="matrix(7.05557,0,0,7.05557,847.521,569.847)">
        <path d="M0,13.364C-0.229,13.135 -0.382,12.906 -0.534,12.677C0.153,10.386 1.909,7.484 2.597,5.651C3.437,4.811 4.812,0 6.415,0.764C6.415,1.528 6.033,2.52 5.651,3.284C5.193,3.284 5.116,4.277 4.812,4.964C3.895,5.88 3.589,7.484 2.597,8.477C2.062,9.927 0.84,11.531 0.382,13.364L0,13.364" style="fill:white;"/>
    </g>
    <g transform="matrix(7.05557,0,0,7.05557,837.282,605.945)">
        <path d="M0,7.255C-0.687,5.88 -1.527,5.499 -2.138,5.346C-2.673,3.971 -2.673,3.818 -2.673,3.055C-2.138,3.131 -1.756,3.36 -1.222,3.131C-1.298,1.909 -1.527,1.909 -2.138,1.757C-2.291,1.604 -2.367,1.451 -2.443,1.375C-1.985,0.917 -2.138,0 -1.068,0C-0.992,0.077 -0.916,0.23 -0.84,0.382C0.535,0.23 1.986,0.077 3.437,0C2.826,1.222 0.764,1.222 -0.152,1.375C-0.382,1.451 -0.534,1.604 -0.687,1.757C-0.687,2.215 -0.382,2.444 -0.229,2.902C0.535,2.75 1.299,2.597 2.139,2.444C1.986,3.437 0,3.666 -0.61,3.895C-0.687,4.2 -0.687,4.506 -0.687,4.811C-0.152,5.041 0.306,4.964 0.993,4.964C0.993,5.117 0.382,7.102 0,7.255" style="fill:white;"/>
    </g>
    <g transform="matrix(7.05557,0,0,7.05557,884.701,608.642)">
        <path d="M0,4.047C0.382,2.901 1.451,1.68 1.68,0.84C1.833,0.534 2.062,0.229 2.291,0L2.597,0C2.443,0.152 2.291,0.305 2.138,0.458C1.909,0.993 1.68,1.527 1.527,2.062L1.222,2.062C0.992,2.749 0.306,3.513 0,4.047" style="fill:white;"/>
    </g>
    <g transform="matrix(5.83413,3.96786,3.96786,-5.83413,933.905,605.498)">
        <path d="M1.947,-0.6C1.884,1.666 1.82,3.931 1.758,6.198L1.948,6.327C2.362,5.038 2.481,3.642 2.413,1.841C2.208,1.055 2.046,0.207 1.947,-0.6" style="fill:white;"/>
    </g>
    <g transform="matrix(7.05557,0,0,7.05557,816.274,579.546)">
        <path d="M0,4.811C-0.306,4.353 -0.535,3.971 -0.764,3.589C-0.841,1.985 -1.299,0.84 -0.459,0C-0.229,0.535 0.534,0.458 1.298,0.458C1.45,0.84 1.604,1.222 1.756,1.68C2.825,0.611 5.422,0.764 7.636,1.298C7.56,1.374 7.56,1.451 7.56,1.603C6.108,1.909 2.978,2.673 1.909,2.673C1.832,2.444 1.756,2.291 1.756,2.138C0.458,2.367 0.534,2.902 -0.076,4.124C-0.076,4.124 0.152,4.658 0,4.811" style="fill:white;"/>
    </g>
    <g transform="matrix(7.05557,0,0,7.05557,919.186,610.259)">
        <path d="M0,0.458C0.076,0.305 0.152,0.152 0.229,0L0.534,0C0.305,0.152 0.152,0.305 0,0.458" style="fill:white;"/>
    </g>
    <g transform="matrix(7.05557,0,0,7.05557,905.171,598.403)">
        <path d="M0,0.84C0.077,0.535 0.153,0.229 0.229,0L0.535,0C0.306,0.229 0.153,0.535 0,0.84" style="fill:white;"/>
    </g>
    <g transform="matrix(7.05557,0,0,7.05557,909.485,593.558)">
        <path d="M0,0.458C0.076,0.305 0.152,0.152 0.229,0L0.229,0.458L0,0.458" style="fill:white;"/>
    </g>
    <g transform="matrix(6.519,2.69884,2.69884,-6.519,909.973,591.185)">
        <path d="M0.458,-0.091C0.05,0.897 0.356,1.354 0.176,2.189L0.459,2.306C0.451,1.724 0.544,1.101 0.636,0.478C0.553,0.279 0.47,0.079 0.458,-0.091" style="fill:white;"/>
    </g>
    <g transform="matrix(7.05557,0,0,7.05557,850.215,508.428)">
        <path d="M0,9.774C-1.527,8.247 -0.764,7.56 0.076,6.49C0.535,6.414 0.993,6.414 1.451,6.414C1.451,4.734 2.902,3.436 3.284,2.138C2.367,1.45 3.131,0.763 3.284,0.305C4.124,0.229 3.971,0 5.346,0C5.728,0.381 5.804,0.381 5.804,0.763C4.812,0.152 4.506,0.381 3.818,0.458C3.818,0.687 3.055,2.291 4.353,2.901L4.353,3.207C3.895,3.665 3.589,4.276 3.513,4.963C2.291,6.338 2.521,5.956 2.979,8.247C2.902,8.399 2.825,8.552 2.825,8.705C2.673,8.17 2.521,7.712 2.443,7.254C0.382,6.72 -0.458,6.643 -0.076,8.934C0,9.163 0.076,9.392 0.229,9.622C0.153,9.622 0.076,9.698 0,9.774" style="fill:white;"/>
    </g>
    <g transform="matrix(7.05557,0,0,7.05557,865.842,574.158)">
        <path d="M0,0.458C0.076,0.306 0.152,0.153 0.229,0C0.229,0.153 0.229,0.306 0.306,0.458L0,0.458" style="fill:white;"/>
    </g>
    <g transform="matrix(7.05557,0,0,7.05557,819.505,538.595)">
        <path d="M0,5.346C-0.534,4.2 -0.534,2.826 -0.687,1.757C0.916,1.375 3.131,0.306 5.498,0C5.498,0 5.574,0 5.65,0.076C5.346,1.069 4.429,1.299 3.665,1.68C3.283,2.138 2.979,2.596 2.673,3.055C2.597,3.513 2.597,3.971 2.597,4.506C1.68,4.735 0.84,5.04 0,5.346" style="fill:white;"/>
    </g>
    <g transform="matrix(7.05557,0,0,7.05557,969.829,573.078)">
        <path d="M0,0.382C0,0.229 0.076,0.077 0.152,0C0.076,0.077 0,0.229 0,0.382" style="fill:white;"/>
    </g>
    <g transform="matrix(7.05557,0,0,7.05557,857.76,559.612)">
        <path d="M0,1.527C-1.451,0.534 -0.687,0 0.534,0.305C0.458,0.687 0.458,1.069 0.458,1.451C0.306,1.451 0.152,1.451 0,1.527" style="fill:white;"/>
    </g>
    <g transform="matrix(7.05557,0,0,7.05557,885.775,548.293)">
        <path d="M0,1.222C0,0.611 -0.687,0 0.229,0C0.611,0.382 0.687,0.688 0.687,1.07C0.458,1.07 0.229,1.146 0,1.222" style="fill:white;"/>
    </g>
    <g transform="matrix(7.05557,0,0,7.05557,905.171,525.124)">
        <path d="M0,3.895C-0.305,2.826 -0.534,2.52 -0.382,1.91C0.229,1.528 0.382,1.07 0.459,0.84C1.681,0.535 3.437,0 5.27,0.764C5.575,1.07 5.728,2.139 6.339,3.36L4.276,3.36C4.2,3.055 4.2,2.749 4.2,2.444C4.048,2.368 3.895,2.291 3.818,2.291L3.818,2.062C3.208,1.833 2.597,1.681 1.986,1.528L1.986,1.757C1.146,1.757 1.527,2.902 1.604,3.59C1.069,3.666 0.535,3.742 0,3.895" style="fill:white;"/>
    </g>
    <g transform="matrix(5.27594,-4.6846,-4.6846,-5.27594,897.866,547.443)">
        <path d="M-0.321,-0.081C-0.441,0.129 -0.505,0.287 -0.619,0.388C-0.523,0.61 -0.422,0.724 -0.321,0.838C-0.099,0.744 0.073,0.591 0.243,0.44C0.034,0.319 -0.118,0.148 -0.321,-0.081" style="fill:white;"/>
    </g>
    <g transform="matrix(5.98256,3.74032,3.74032,-5.98256,919.778,544.31)">
        <path d="M0.179,-0.014C0.01,-0.029 -0.056,-0.07 -0.121,-0.111C-0.258,0.253 -0.339,0.383 0.179,0.707C0.26,0.577 0.405,0.488 0.551,0.399C0.358,0.278 0.268,0.132 0.179,-0.014" style="fill:white;"/>
    </g>
    <g transform="matrix(0,-7.05557,-7.05557,0,827.858,537.248)">
        <path d="M-0.268,0.573L0.573,0.573L0.573,0.268C0.343,0.344 0.114,0.344 -0.192,0.344C-0.192,0.421 -0.192,0.497 -0.268,0.573" style="fill:white;"/>
    </g>
    <g transform="matrix(4.8019,5.16941,5.16941,-4.8019,838.701,531.285)">
        <path d="M0.547,-0.261C0.271,-0.109 0.051,-0.008 -0.169,0.091C0.035,0.423 0.291,0.811 0.547,1.198C0.767,1.098 0.987,0.999 1.258,0.954C1.003,0.566 0.747,0.179 0.547,-0.261" style="fill:white;"/>
    </g>
    <g transform="matrix(5.64224,4.2363,4.2363,-5.64224,865.358,524.962)">
        <path d="M0.115,-0.039C-0.037,0.037 -0.084,0.099 -0.129,0.16L0.115,0.343C0.16,0.282 0.206,0.221 0.359,0.145L0.115,-0.039" style="fill:white;"/>
    </g>
    <g transform="matrix(7.05557,0,0,7.05557,847.521,400.131)">
        <path d="M0,17.487C-0.534,15.425 -2.597,12.371 -3.665,11.836C-3.818,11.607 -3.971,11.378 -4.124,11.149L-4.353,11.149C-4.658,10.691 -4.964,10.309 -5.27,9.927C-5.574,9.239 -5.88,8.629 -6.186,8.018C-6.949,5.422 -8.171,1.909 -7.255,0C-7.178,0 -7.102,0 -6.949,0.076C-6.796,2.52 -6.491,5.04 -5.346,8.171C-5.04,8.705 -4.734,9.316 -4.353,9.927C-3.589,10.843 -2.825,11.759 -1.985,12.752C-1.604,13.592 0.153,15.196 0.382,17.334C0.229,17.334 0.076,17.41 0,17.487" style="fill:white;"/>
    </g>
    <g transform="matrix(0,-7.05557,-7.05557,0,884.972,519.467)">
        <path d="M-0.039,0.497L0.497,0.497C0.497,0.345 0.497,0.192 0.42,0.039L0.038,0.039C0.038,0.192 0.038,0.345 -0.039,0.497" style="fill:white;"/>
    </g>
    <g transform="matrix(7.05557,0,0,7.05557,908.947,513.811)">
        <path d="M0,0.764C0,0 0.916,0.382 1.909,0.306C1.909,0.382 1.909,0.458 1.985,0.611C1.298,0.611 0.61,0.687 0,0.764" style="fill:white;"/>
    </g>
    <g transform="matrix(7.05557,0,0,7.05557,863.685,475.018)">
        <path d="M0,5.04C-0.152,3.818 -0.229,2.597 -0.306,1.375C0.306,0.764 1.375,0.993 1.909,0.458C3.589,0.382 4.658,0 6.797,0.306C6.721,0.382 6.644,0.458 6.644,0.611C5.04,0.611 3.589,0.687 2.597,0.993C2.521,1.298 2.443,1.604 2.367,1.986C1.604,2.138 0.84,2.291 0.076,2.52C0,3.36 0,4.2 0,5.04" style="fill:white;"/>
    </g>
    <g transform="matrix(4.59336,5.35557,5.35557,-4.59336,938.551,506.431)">
        <path d="M0.267,-0.123C0.151,-0.023 0.084,0.134 0.076,0.241C0.068,0.349 0.168,0.465 0.267,0.581L0.441,0.432C0.35,0.209 0.308,0.043 0.267,-0.123" style="fill:white;"/>
    </g>
    <g transform="matrix(7.05557,0,0,7.05557,934.269,502.5)">
        <path d="M0,0.229C0.076,0.152 0.152,0.076 0.229,0C0.152,0.076 0.076,0.152 0,0.229" style="fill:white;"/>
    </g>
    <g transform="matrix(7.05557,0,0,7.05557,928.881,415.75)">
        <path d="M0,11.531C-0.306,11.379 -0.611,11.226 -0.84,11.15C-1.298,9.24 -1.985,8.324 -1.222,7.178C-1.069,5.651 -1.069,3.971 -0.076,3.36C0.076,2.291 0.229,1.299 0.382,0.306C0.534,0.153 0.764,0 1.146,0.153C1.146,1.604 0.84,3.055 0.076,4.658C-0.076,5.04 -0.152,5.422 -0.229,5.804C-0.306,7.637 -0.992,8.477 0.458,10.768C0.382,10.997 0.306,11.226 0.306,11.455C0.152,11.455 0.076,11.455 0,11.531" style="fill:white;"/>
    </g>
    <g transform="matrix(7.05557,0,0,7.05557,851.834,443.77)">
        <path d="M0,6.338C-0.611,3.895 -0.306,1.756 -0.076,0C0.306,0 0.534,1.451 0.534,1.604C0.306,1.68 0.076,1.833 -0.076,1.985C0.152,2.902 0.382,3.818 0.687,4.734C0.152,5.269 0.076,4.963 0.306,6.338L0,6.338" style="fill:white;"/>
    </g>
    <g transform="matrix(0,-7.05557,-7.05557,0,868.267,476.907)">
        <path d="M-0.038,0.955L0.802,0.955C0.879,0.649 0.955,0.344 0.955,0.038C0.726,0.115 0.42,0.191 0.115,0.191C0.115,0.497 0.038,0.726 -0.038,0.955" style="fill:white;"/>
    </g>
    <g transform="matrix(7.05557,0,0,7.05557,860.991,456.162)">
        <path d="M0,1.069C0,0.305 1.985,0 2.825,0.229C2.291,0.305 1.757,0.382 1.298,0.535C1.298,0.764 0.152,0.993 0,1.069" style="fill:white;"/>
    </g>
    <g transform="matrix(7.05557,0,0,7.05557,825.968,440.535)">
        <path d="M0,2.215C-0.84,1.375 -0.382,1.069 -0.076,0.764C-0.076,0.459 0,0.23 0.076,0L0.306,0C0.229,0.688 0.229,1.451 0.229,2.215L0,2.215" style="fill:white;"/>
    </g>
    <g transform="matrix(7.05557,0,0,7.05557,914.872,432.459)">
        <path d="M0,2.596C-0.229,2.443 -0.382,2.367 -0.534,2.29C-0.534,1.909 -0.534,1.527 -0.458,1.145C0,1.145 -0.458,0 0.076,0C0.076,0.84 0.152,1.679 0.229,2.596L0,2.596" style="fill:white;"/>
    </g>
    <g transform="matrix(7.05557,0,0,7.05557,864.223,414.137)">
        <path d="M0,4.811C-0.992,2.749 -0.61,1.222 0.611,0C1.222,0.306 0.917,0.84 2.139,1.222C2.215,1.451 2.367,1.68 2.521,1.986C2.291,2.138 2.139,2.367 1.985,2.597C1.833,3.131 1.757,3.742 1.681,4.353C1.069,4.505 0.535,4.658 0,4.811" style="fill:white;"/>
    </g>
    <g transform="matrix(7.05557,0,0,7.05557,819.505,398.514)">
        <path d="M0,5.956C-0.917,4.047 -0.993,1.374 -0.687,0.076C-0.229,0 0.229,0 0.687,0C0.687,1.374 0.687,3.894 0,5.956" style="fill:white;"/>
    </g>
    <g transform="matrix(7.05557,0,0,7.05557,827.587,409.824)">
        <path d="M0,3.666C0.152,2.444 0.306,1.223 0.534,0C0.687,0.077 0.916,0.229 1.146,0.382C0.992,1.07 0.84,1.833 0.687,2.597C0.534,2.597 0.382,2.597 0.306,2.673C0.229,2.902 0.229,3.208 0.229,3.513C0.152,3.513 0.076,3.59 0,3.666" style="fill:white;"/>
    </g>
    <g transform="matrix(7.05557,0,0,7.05557,952.052,354.33)">
        <path d="M0,11.455C-0.077,10.386 -0.153,9.317 -0.153,8.247C-0.382,8.247 -0.535,8.324 -0.687,8.4C-1.223,7.484 -2.291,5.575 -2.291,5.117C-2.139,4.964 -1.986,4.811 -1.833,4.659C-0.535,7.179 -0.229,8.324 0.534,7.942L0.534,7.637C0.61,7.56 0.687,7.56 0.84,7.56L1.068,7.102C0.916,7.026 0.764,7.026 0.687,7.026C0.152,6.033 -0.306,5.04 -0.764,4.047L-0.993,4.047C-1.223,3.589 -1.451,3.131 -1.604,2.673C-1.833,1.145 -2.444,0.535 -2.444,0L-2.139,0L-2.139,0.458L-1.909,0.458C-1.681,1.069 -1.451,1.68 -1.146,2.368C-1.069,2.368 -0.993,2.444 -0.841,2.52C-0.841,3.818 0.458,4.735 0.992,6.491C1.298,6.797 1.45,8.858 1.145,10.309C0.61,10.309 0.687,10.92 0.305,11.378C0.152,11.378 0.076,11.378 0,11.455" style="fill:white;"/>
    </g>
    <g transform="matrix(2.02578,6.7585,6.7585,-2.02578,877.748,415.681)">
        <path d="M0.374,-0.12C0.205,-0.149 0.037,-0.178 -0.058,-0.23C0.03,0.062 0.19,0.334 0.374,0.678L0.519,0.634C0.431,0.341 0.366,0.121 0.374,-0.12" style="fill:white;"/>
    </g>
    <g transform="matrix(6.25415,3.26598,3.26598,-6.25415,856.746,411.905)">
        <path d="M0.476,-0.108C0.262,0.469 0.046,1.046 -0.169,1.623C0.035,1.729 0.237,1.835 0.476,1.873L0.865,1.128C0.735,0.716 0.606,0.304 0.476,-0.108" style="fill:white;"/>
    </g>
    <g transform="matrix(7.05557,0,0,7.05557,894.939,388.813)">
        <path d="M0,3.055C-0.077,2.062 -0.229,1.68 -0.841,1.68C-0.841,0.687 -0.764,0.229 0.305,0.229L0.305,0L0.61,0C0.916,0.611 1.222,0.687 2.138,0.993C1.374,1.68 0.687,2.368 0,3.055" style="fill:white;"/>
    </g>
    <g transform="matrix(7.05557,0,0,7.05557,875.536,329.548)">
        <path d="M0,10.691C0.077,9.469 0.153,8.323 0.229,7.178C0.459,6.72 0.764,6.338 1.069,5.956C1.375,5.956 1.833,5.574 2.063,5.345C2.521,5.192 5.423,4.124 5.805,3.36C6.797,2.901 7.561,0.84 7.637,0C7.866,0 8.095,0 8.324,0.076C8.324,1.222 7.79,3.131 6.568,4.047C4.964,4.505 3.208,5.192 2.521,6.185C1.604,6.185 0.764,7.941 0.535,8.247C0.306,9.011 0.153,9.851 0,10.691" style="fill:white;"/>
    </g>
    <g transform="matrix(7.05557,0,0,7.05557,831.356,382.885)">
        <path d="M0,1.757C-1.222,1.604 -4.353,1.146 -5.04,0.688C-5.116,0.459 -5.192,0.23 -5.192,0L-2.673,0.459C-1.298,0.459 0.076,0.535 1.451,0.611C1.375,0.917 1.299,1.222 1.299,1.604C0.84,1.604 0.382,1.68 0,1.757" style="fill:white;"/>
    </g>
    <g transform="matrix(7.05557,0,0,7.05557,907.328,388.814)">
        <path d="M0,0.382C-0.229,0.305 -0.382,0.229 -0.534,0.229L-0.534,0L0.993,0L0.993,0.229C0.611,0.229 0.306,0.305 0,0.382" style="fill:white;"/>
    </g>
    <g transform="matrix(7.05557,0,0,7.05557,908.41,378.572)">
        <path d="M0,0.917C-0.306,0.611 -0.611,0.382 -0.841,0.153C-0.841,0.077 -0.841,0 -0.764,0C-0.382,0.153 0,0.306 0.458,0.459C0.458,0.535 0.534,0.688 0.61,0.841C0.382,0.841 0.152,0.841 0,0.917" style="fill:white;"/>
    </g>
    <g transform="matrix(7.05557,0,0,7.05557,860.991,365.646)">
        <path d="M0,2.673C-0.076,2.596 -0.152,2.52 -0.229,2.52C-0.382,1.68 -0.458,0.84 -0.534,0C0.076,0.229 0.764,0.458 1.451,0.687C1.298,1.222 1.146,1.756 0.993,2.291C0.611,2.367 0.306,2.52 0,2.673" style="fill:white;"/>
    </g>
    <g transform="matrix(7.04351,0.412409,0.412409,-7.04351,822.468,383.45)">
        <path d="M0.038,0.006C-0.118,0.074 -0.195,0.069 -0.272,0.065C-0.402,0.975 -0.33,1.055 0.038,1.306C0.06,0.925 0.159,0.549 0.257,0.172C0.182,0.167 0.109,0.087 0.038,0.006" style="fill:white;"/>
    </g>
    <g transform="matrix(7.05557,0,0,7.05557,879.85,298.839)">
        <path d="M0,9.545C-1.527,8.018 -0.916,7.331 -0.916,5.956C-0.229,4.734 0.687,3.818 1.757,2.749C3.36,1.832 4.964,0.916 6.567,0C6.797,0.076 7.025,0.152 7.255,0.305C6.949,0.839 6.644,1.45 6.415,2.061C5.04,2.596 3.666,3.207 2.367,3.818C1.985,4.047 1.68,4.276 1.375,4.581C0.993,5.04 0.611,5.498 0.306,6.032C0.306,6.796 -0.382,7.865 0.993,8.858C0.993,9.087 0,9.545 0,9.545" style="fill:white;"/>
    </g>
    <g transform="matrix(7.05557,0,0,7.05557,788.258,347.859)">
        <path d="M0,2.292C-0.077,2.215 -0.153,2.139 -0.153,2.139C0.534,1.452 1.298,2.063 2.367,1.528C4.353,1.07 6.414,0.612 8.476,0.154C8.781,0.001 9.011,-0.152 9.927,-0.152C9.927,0.001 10.003,0.154 10.079,0.383C9.469,0.536 8.857,0.688 8.247,0.917C8.247,1.452 2.978,1.986 2.749,1.986C2.29,2.444 0,2.292 0,2.292" style="fill:white;"/>
    </g>
    <g transform="matrix(0,-7.05557,-7.05557,0,912.179,355.951)">
        <path d="M0.306,1.375L0.764,1.375C0.993,1.146 1.146,0.916 1.299,0.611C1.375,0.306 1.375,0 1.375,-0.306C0.917,-0.076 0.535,0.916 0.306,1.375" style="fill:white;"/>
    </g>
    <g transform="matrix(7.05557,0,0,7.05557,802.259,327.392)">
        <path d="M0,2.52L-0.229,1.374C-0.61,1.298 -0.916,1.298 -1.222,1.298C-1.298,1.603 -1.374,1.909 -1.45,2.214C-1.756,2.214 -2.062,2.291 -2.29,2.367C-2.367,1.909 -2.443,1.451 -2.443,1.069C-1.756,0.382 -0.305,0.916 1.527,0C1.91,0.076 2.291,0.152 2.75,0.229C2.673,0.611 2.139,0.84 2.368,1.833L1.986,1.833C1.91,1.451 1.833,1.145 1.833,0.84C1.375,0.84 0.917,0.84 0.535,0.916C0.306,1.451 0.153,1.985 0,2.52" style="fill:white;"/>
    </g>
    <g transform="matrix(7.05557,0,0,7.05557,919.186,322.541)">
        <path d="M0,2.291C-0.841,1.451 -0.306,0.916 -0.382,0.306C-0.077,0.153 0.229,0.077 0.534,0C0.305,0.764 0.152,1.527 0,2.291" style="fill:white;"/>
    </g>
    <g transform="matrix(7.05557,0,0,7.05557,829.744,300.45)">
        <path d="M0,5.193C-2.444,3.36 1.45,3.437 2.138,2.749C2.673,2.749 3.131,2.367 4.047,2.978C4.887,2.978 5.65,2.291 6.108,1.833C6.108,1.527 6.108,1.298 6.186,1.069C6.872,0.84 7.713,0 8.858,0C8.323,0.229 7.789,0.458 7.331,0.764C7.025,1.375 6.186,2.138 5.65,2.673C5.116,3.208 4.658,3.742 4.199,4.353C3.665,4.276 3.131,4.276 2.596,4.276C1.68,4.582 0.84,4.887 0,5.193" style="fill:white;"/>
    </g>
    <g transform="matrix(4.98904,4.98904,4.98904,-4.98904,853.176,308.788)">
        <path d="M0.38,-0.001C0.056,-0.325 -0.484,0.43 -0.484,0.43C-0.214,0.701 0.056,0.971 0.38,1.187C0.488,0.971 0.595,0.755 0.757,0.484C0.596,0.323 0.434,0.16 0.38,-0.001" style="fill:white;"/>
    </g>
    <g transform="matrix(7.05557,0,0,7.05557,905.171,269.739)">
        <path d="M0,3.513L0,3.284L-0.229,3.284C-0.305,3.131 -0.305,3.055 -0.305,2.978C0.306,2.367 1.909,1.451 3.055,1.298C3.895,0.916 4.735,0.534 5.651,0.229C5.651,0.076 5.804,0 6.186,0.153C6.109,0.382 6.109,0.611 6.109,0.84C5.117,1.222 4.2,1.604 3.284,1.986C3.208,2.062 3.131,2.138 3.131,2.215C2.063,2.596 0.993,3.055 0,3.513" style="fill:white;"/>
    </g>
    <g transform="matrix(7.05557,0,0,7.05557,942.351,282.669)">
        <path d="M0,1.451C-0.076,1.299 -0.152,1.146 -0.152,0.993C-0.152,0.84 -0.076,0.687 0,0.611C0.534,0.611 0.382,0 1.298,0C0.84,0.458 0.382,0.917 0,1.451" style="fill:white;"/>
    </g>
    <g transform="matrix(7.05557,0,0,7.05557,780.714,267.583)">
        <path d="M0,3.513C-1.299,2.444 -3.36,0.764 -3.36,0L-3.055,0C-2.673,0.382 -2.291,0.764 -1.909,1.222C-1.757,1.298 -0.153,2.291 0.458,3.513L0,3.513" style="fill:white;"/>
    </g>
    <g transform="matrix(3.72081,5.99472,5.99472,-3.72081,878.486,257.863)">
        <path d="M4.248,-2.139C2.776,-2.484 3.405,0.99 3.394,1.987C3.872,4.205 3.349,5.968 4.248,8.286C4.718,8.175 4.993,8.183 5.173,7.893C4.679,4.782 5.049,0.599 4.248,-2.139" style="fill:white;"/>
    </g>
    <g transform="matrix(7.05557,0,0,7.05557,797.952,64.9988)">
        <path d="M0,31.004C-0.229,30.469 -0.458,29.935 -0.687,29.477C-1.68,28.484 -2.443,28.713 -2.979,28.484C-4.276,26.193 -4.353,25.963 -6.186,25.658C-6.567,25.429 -6.873,25.2 -7.178,25.047C-7.178,23.367 -6.949,22.68 -6.72,21.306C-5.88,20.466 -4.276,21.84 -2.52,21.84C-2.138,21.458 -1.985,20.542 -1.985,20.389C-2.597,19.778 -5.88,19.397 -6.414,19.32C-6.491,19.168 -6.567,19.091 -6.567,19.015C-6.491,18.709 -6.414,18.404 -6.338,18.175C-5.65,18.175 -5.346,18.251 -4.124,18.862C-3.36,19.015 -2.52,19.168 -1.68,19.397C-1.451,18.862 -1.222,18.404 -0.992,17.946C-2.52,16.953 -4.887,16.418 -5.728,16.418C-5.728,14.28 -4.505,13.211 -3.971,11.684C-3.818,11.531 -3.742,11.379 -2.979,11.379C-2.979,11.15 -2.979,10.92 -2.902,10.691C-2.215,10.004 -0.534,10.92 0.61,11.455C1.146,11.837 2.521,12.371 2.521,14.051C2.062,14.433 1.604,14.815 1.222,15.196C-0.611,15.196 -1.757,12.6 -2.215,12.066C-2.367,12.066 -2.52,12.066 -2.673,12.142C-2.673,12.829 -0.687,14.967 0.229,16.189C0.61,16.418 0.993,16.648 1.375,16.877C-0.229,16.877 0,16.342 -0.458,15.96C-0.611,16.113 -0.687,16.266 -0.764,16.495C-0.076,17.182 0.61,17.946 1.298,18.709C2.138,18.556 2.979,18.404 3.895,18.328C4.582,17.564 5.27,16.8 5.956,16.037C5.956,15.731 5.956,15.426 6.033,15.12C5.88,13.67 4.582,11.531 3.971,11.226L3.971,10.92C4.124,10.691 4.353,10.462 4.582,10.309C4.124,8.858 2.979,8.706 2.521,8.324C1.451,8.553 1.985,8.248 1.68,9.317C2.367,9.546 3.055,9.775 3.742,10.08C3.666,10.156 3.666,10.309 3.666,10.462C3.437,10.386 3.207,10.386 2.979,10.386C0.916,9.24 -0.84,8.858 -2.443,8.4C-2.062,7.636 -1.604,6.949 -1.146,6.262C0.076,6.186 1.298,6.109 2.597,6.033C3.283,5.498 3.971,4.964 4.658,4.429C5.422,3.207 5.804,2.367 5.88,1.375C6.644,1.146 7.407,0.993 8.171,0.84C8.171,1.68 8.019,1.833 7.713,3.055C7.789,3.131 7.942,3.207 8.095,3.36C8.629,2.214 8.629,0.84 8.935,0.305C10.232,0.153 11.149,0 12.982,0.153C12.523,0.764 12.065,1.375 11.607,1.985C11.531,2.596 11.455,3.207 11.378,3.818C10.691,5.269 8.705,7.331 8.705,9.011C8.858,8.935 9.011,8.935 9.164,8.935C9.164,8.629 9.24,8.4 9.316,8.171C10.844,6.644 11.378,4.2 13.211,2.978C13.135,2.825 13.135,2.673 13.135,2.596C12.982,2.52 12.829,2.52 12.677,2.52C12.601,2.367 12.601,2.214 12.601,2.062C13.135,1.604 13.746,1.146 14.356,0.764C15.426,0.687 16.495,0.611 17.564,0.611C17.564,0.687 17.564,0.84 17.641,0.993C16.724,2.214 15.502,3.284 14.738,4.582C14.738,4.964 14.814,5.193 15.35,5.422C14.433,6.949 12.295,8.095 11.531,9.698C11.378,9.775 11.302,9.851 11.226,9.927L11.226,10.386C11.531,10.156 11.913,9.927 12.295,9.775C13.593,8.018 15.96,6.796 17.335,4.964C17.487,4.887 17.641,4.811 17.793,4.811L17.793,4.429C17.411,4.276 17.029,4.124 16.647,4.047C19.32,1.68 18.48,1.756 22.146,3.589L22.146,4.2C21.611,4.734 21.077,5.269 20.542,5.804C19.396,6.567 17.411,7.866 16.647,9.011C16.419,9.164 13.135,11.455 13.135,11.913C12.982,11.989 12.829,12.066 12.677,12.218C12.447,12.753 11.607,13.364 11.837,13.822C11.989,13.746 12.219,13.67 12.447,13.67C12.523,13.517 12.601,13.364 12.753,13.288C13.822,12.6 14.892,11.989 16.037,11.379C16.953,10.844 17.869,10.386 18.786,9.927C19.702,8.4 21.077,7.484 22.833,6.72C23.062,6.186 23.139,5.957 23.902,6.109C24.055,6.491 24.284,6.949 24.513,7.407C24.513,7.942 25.048,8.171 25.735,8.706C24.818,9.622 24.36,9.011 23.75,9.622C21.917,10.156 20.084,10.691 18.327,11.302C17.717,11.913 14.814,12.142 15.273,13.135C17.105,12.829 19.244,11.76 21.917,11.76C21.993,11.913 22.069,12.066 22.146,12.295C20.236,12.676 17.717,12.906 16.113,13.67C14.586,13.67 13.975,14.051 13.287,14.357C13.287,14.509 13.364,14.662 13.44,14.891C15.731,14.738 18.022,14.662 20.313,14.586C21.687,14.586 24.208,14.204 25.735,15.196C25.812,15.578 25.964,15.96 26.117,16.342C24.666,16.342 23.673,15.731 23.139,15.655C20.618,15.655 18.099,15.655 15.655,15.731C15.578,15.808 15.502,15.96 15.502,16.113L12.601,16.113C12.142,15.808 11.684,15.502 11.226,15.196C10.768,15.502 10.386,15.808 10.004,16.189C10.004,16.724 9.928,16.953 10.462,17.716C10.614,17.64 10.768,17.64 10.92,17.64C10.844,17.411 10.844,17.182 10.844,16.953L11.607,16.953C11.607,16.953 10.462,18.251 11.913,17.793C12.677,17.029 13.975,17.564 15.502,17.716C16.113,17.716 16.724,17.793 17.335,17.869C17.183,18.251 17.029,18.633 16.953,19.015C16.801,20.084 16.724,21.153 16.647,22.298C16.724,22.909 16.801,23.596 16.953,24.284C16.724,24.131 16.495,23.978 16.342,23.826C16.113,21.306 14.968,21 14.204,20.236C12.982,19.778 11.76,19.397 10.538,19.015C10.004,18.938 9.469,18.938 9.011,18.938C7.407,19.778 5.574,21.382 4.811,22.909C5.498,23.062 6.262,23.214 7.025,23.443C7.637,22.756 8.247,22.069 8.858,21.382C10.004,21.382 11.76,21.535 12.371,23.52C11.989,23.902 11.607,24.36 11.302,24.818C9.851,24.818 8.858,23.52 8.553,23.062C8.4,23.062 8.247,23.062 8.095,23.138C8.095,23.443 8.4,24.437 9.393,24.895L9.393,25.124C9.546,25.2 9.698,25.353 9.851,25.505L9.393,25.505L9.393,25.2C9.087,25.124 8.858,25.124 8.629,25.124C8.629,25.811 8.705,26.116 9.393,27.109L9.393,27.72C8.935,27.873 8.477,28.025 8.019,28.178C6.949,28.484 5.956,28.866 4.964,29.248C4.429,29.782 2.367,30.087 1.833,30.24C1.222,30.469 0.61,30.698 0,31.004" style="fill:white;"/>
    </g>
    <g transform="matrix(6.932,1.31472,1.31472,-6.932,953.321,270.799)">
        <path d="M0.452,-0.072C-0.208,1.357 0.326,2.236 0.572,2.981C0.472,3.507 0.463,3.971 0.452,4.436C0.648,4.629 0.86,4.746 1.145,4.879C1.259,4.278 1.206,0.459 0.452,-0.072" style="fill:white;"/>
    </g>
    <g transform="matrix(7.05557,0,0,7.05557,783.945,234.181)">
        <path d="M0,4.276C-0.152,4.2 -0.306,4.124 -0.458,4.124C-0.611,3.818 -0.764,3.589 -0.84,3.36C-0.84,1.985 -1.069,1.145 -1.375,0.534C-0.764,-0.077 -0.458,-0.077 0.306,-0.229C0.382,-0.153 0.534,-0.077 0.687,-0C0.916,0.61 0.916,1.298 2.062,2.062C2.901,2.062 4.047,1.909 4.047,3.971C3.207,4.505 1.451,3.971 1.298,3.971C0.84,4.047 0.382,4.124 0,4.276" style="fill:rgb(35,31,32);"/>
    </g>
    <g transform="matrix(7.05557,0,0,7.05557,713.899,70.9276)">
        <path d="M0,27.109C-0.61,26.651 -1.146,26.192 -1.68,25.734L-1.68,25.505C-1.908,25.429 -2.062,25.353 -2.214,25.353C-2.749,23.214 -2.367,21.763 -2.443,20.542C-2.978,20.389 -3.513,20.313 -4.047,20.236C-4.047,17.869 -2.52,15.273 -2.29,13.363C-1.832,13.211 -1.374,13.134 -0.84,13.058C-0.458,11.913 -0.382,11.149 -0.382,10.385C-0.61,10.08 -0.84,9.851 -0.992,9.622C0.382,6.873 2.444,5.345 4.43,3.36C4.582,3.283 4.735,3.283 4.888,3.283C5.651,2.062 6.721,2.138 7.866,0.992C8.706,0.61 9.622,0.305 10.539,0L10.539,1.451C9.622,1.451 6.873,4.047 6.644,4.2C5.27,4.2 5.193,4.2 4.43,4.811C4.354,5.345 4.354,5.956 4.354,6.567C3.208,7.865 1.909,9.622 1.451,11.455C0.917,12.6 -0.382,14.433 -0.382,16.113C-0.764,16.189 -1.146,16.265 -1.45,16.418C-1.604,17.106 -1.756,17.793 -1.832,18.556C-2.138,18.556 -2.062,18.785 -2.062,19.243C-1.298,19.473 -0.534,19.778 0.306,20.084C0.382,20.236 0.459,20.389 0.535,20.542L-0.84,20.542C-0.992,20.694 -1.068,20.847 -1.146,21C-0.687,21.458 -0.458,21.458 0.153,21.61C0.153,21.763 0.229,21.916 0.306,22.145C-1.146,22.145 -1.068,21.61 -1.374,22.68C-1.068,23.291 -1.068,23.367 0.229,23.52L0.229,23.749C-0.229,23.825 -0.61,23.901 -0.992,24.054C-0.992,24.436 -0.992,24.894 -0.916,25.353C-0.458,25.505 0,25.734 0.459,25.963C0.459,26.04 0.306,26.956 0,27.109" style="fill:white;"/>
    </g>
    <g transform="matrix(7.05557,0,0,7.05557,802.259,256.272)">
        <path d="M0,0.458C-0.076,0.305 -0.152,0.152 -0.152,0.076C-0.305,0 -0.381,0 -0.457,0L0.077,0C0.077,0.152 0.153,0.305 0.229,0.458L0,0.458" style="fill:white;"/>
    </g>
    <g transform="matrix(7.05557,0,0,7.05557,726.295,232.025)">
        <path d="M0,3.207C-0.076,2.978 -0.152,2.749 -0.229,2.596C-0.764,2.443 -1.298,2.367 -1.833,2.29L-1.833,1.756C-1.451,1.603 -1.069,1.527 -0.611,1.451C-0.611,0.916 -0.534,0.458 -0.458,0L0.382,0C0.229,0.764 -0.458,2.29 0,3.207" style="fill:white;"/>
    </g>
    <g transform="matrix(7.05557,0,0,7.05557,574.889,115.644)">
        <path d="M0,19.32C-0.534,19.091 -1.068,18.938 -1.526,18.785C-1.909,18.404 -2.291,18.022 -2.672,17.64C-2.978,17.106 -3.283,16.571 -3.513,16.113C-4.123,12.447 -3.359,8.324 -3.971,5.422C-4.429,4.735 -4.811,4.048 -5.192,3.437C-6.262,2.902 -6.185,1.528 -6.185,1.07C-5.116,0 -5.116,0.382 -3.665,1.451L-3.359,1.451C-3.207,2.062 -3.054,2.673 -2.825,3.284C-1.985,4.582 -1.909,9.775 -1.832,11.989C-2.138,12.066 -2.443,12.142 -2.672,12.218C-2.749,12.447 -2.749,12.676 -2.749,12.982C-2.443,13.135 -2.062,13.288 -1.68,13.44L-1.68,14.204C-1.985,14.28 -2.291,14.357 -2.596,14.433C-2.596,14.738 -2.596,15.12 -2.52,15.502C-2.367,15.502 -2.138,15.578 -1.909,15.655C-1.68,16.571 -1.45,17.487 -1.222,18.404C-0.764,18.48 -0.305,18.556 0.229,18.709C0.229,18.862 0.229,19.015 0.306,19.168C0.153,19.168 0.077,19.244 0,19.32" style="fill:white;"/>
    </g>
    <g transform="matrix(7.05557,0,0,7.05557,612.606,237.412)">
        <path d="M0,1.527C-0.687,0.84 0,0 0,0C0.382,0.382 0.229,0.687 0.229,1.298C0.153,1.375 0.076,1.451 0,1.527" style="fill:white;"/>
    </g>
    <g transform="matrix(4.22743,5.64888,5.64888,-4.22743,868.321,247.537)">
        <path d="M0.138,0.03C-0.03,0.061 -0.137,0.046 -0.244,0.03C-0.152,0.152 -0.061,0.274 0.138,0.413L0.321,0.275L0.138,0.03" style="fill:white;"/>
    </g>
    <g transform="matrix(7.05557,0,0,7.05557,489.761,222.861)">
        <path d="M0,3.437C-2.062,2.444 -2.749,1.222 -0.916,0L-0.534,0C-0.152,0.382 -0.305,0.993 -0.305,1.375C0.382,1.833 0.535,2.444 2.063,1.91C2.215,1.528 2.673,0.459 3.284,1.681C2.826,2.368 2.368,3.131 1.604,3.36C1.069,3.36 0.535,3.36 0,3.437" style="fill:white;"/>
    </g>
    <g transform="matrix(7.05557,0,0,7.05557,598.599,218.016)">
        <path d="M0,3.589C-0.152,3.36 -0.229,3.131 -0.306,2.978L-1.146,2.978L-1.146,2.749C-1.527,2.596 -1.909,2.443 -2.215,2.367C-2.291,2.214 -2.291,2.062 -2.291,1.909C-1.146,2.138 0.993,1.985 2.291,0.687C3.055,0.534 2.673,0 3.971,0.993C3.971,1.146 3.971,1.375 4.048,1.604C2.597,0.916 1.985,1.375 1.68,2.443C-0.152,2.52 0.611,2.062 0.229,3.589L0,3.589" style="fill:white;"/>
    </g>
    <g transform="matrix(7.05557,0,0,7.05557,648.704,210.473)">
        <path d="M0,4.582C-0.076,3.207 -0.152,1.909 -0.152,0.611C-0.229,0.535 -0.305,0.458 -0.382,0.458L-0.382,0C-0.229,0.306 -0.076,0.611 0.153,0.993C0.153,2.062 0.153,3.207 0.229,4.353C0.153,4.429 0.077,4.505 0,4.582" style="fill:white;"/>
    </g>
    <g transform="matrix(7.0348,-0.540957,-0.540957,-7.0348,633.355,239.08)">
        <path d="M-0.114,0.016C-0.073,0.549 0.038,1 0.149,1.451C-0.166,2.318 -0.208,2.78 -0.114,3.003C-0.143,2.622 0.014,2.687 0.308,2.511C0.284,2.207 0.565,0.884 -0.114,0.016" style="fill:white;"/>
    </g>
    <g transform="matrix(7.05557,0,0,7.05557,658.405,185.691)">
        <path d="M0,7.254C0,5.498 -0.382,4.123 -0.611,3.13C-1.146,3.13 -1.375,2.062 -1.527,1.832C-1.757,1.68 -1.909,1.527 -2.062,1.45C-2.062,1.298 -2.062,1.222 -1.985,1.145C-0.611,0.916 -0.152,0 0.993,1.527C1.069,1.527 1.146,1.527 1.298,1.603C1.527,2.443 1.757,3.283 1.985,4.2C2.291,4.505 2.597,5.879 2.215,6.643C1.451,6.796 0.687,7.025 0,7.254" style="fill:white;"/>
    </g>
    <g transform="matrix(7.01756,0.731335,0.731335,-7.01756,218.769,236.056)">
        <path d="M0.381,-0C-0.276,2.619 -0.361,4.912 -0.522,7.199C-0.227,7.307 0.077,7.339 0.381,7.371C0.482,4.924 0.583,2.477 0.761,0.04L0.381,-0" style="fill:white;"/>
    </g>
    <g transform="matrix(5.20269,4.76582,4.76582,-5.20269,492.518,230.402)">
        <path d="M0.477,-0.082C0.267,0.036 0.056,0.153 -0.047,0.266C-0.029,0.698 -0.297,0.763 0.477,1.162C0.577,0.941 0.726,0.664 0.932,0.439C0.763,0.284 0.594,0.13 0.477,-0.082" style="fill:white;"/>
    </g>
    <g transform="matrix(6.39535,2.98003,2.98003,-6.39535,683.133,230.158)">
        <path d="M0.364,-0.038C0.069,0.414 -0.157,0.899 -0.383,1.384C-0.18,1.309 0.093,1.268 0.364,1.226C0.493,0.949 0.622,0.672 0.821,0.428C0.645,0.262 0.469,0.095 0.364,-0.038" style="fill:white;"/>
    </g>
    <g transform="matrix(7.05557,0,0,7.05557,361.527,162.522)">
        <path d="M0,9.698C-0.916,8.934 -1.832,8.247 -2.673,7.56C-2.901,7.178 -3.131,6.796 -3.283,6.414C-3.359,5.727 -3.359,5.04 -3.359,4.353C-3.131,3.894 -2.825,2.749 -2.52,3.054C-2.825,4.734 -3.131,5.727 -1.756,7.865C-1.146,8.247 -0.764,8.629 0.611,9.087C1.527,8.934 2.444,8.781 3.437,8.629C3.895,8.094 4.354,7.56 4.812,7.102C5.04,4.2 5.117,3.741 3.513,2.291C2.063,1.756 0.993,1.298 -0.152,1.298C-0.61,1.451 -0.992,1.604 -1.374,1.833L-1.374,1.527C0,1.145 2.597,0 4.124,2.062C4.812,2.367 4.964,2.52 5.575,3.665C5.651,4.506 5.728,5.345 5.804,6.185C5.499,6.796 5.193,7.407 4.888,8.018L4.582,8.018C3.972,9.24 0.764,9.621 0,9.698" style="fill:white;"/>
    </g>
    <g transform="matrix(7.05557,0,0,7.05557,365.303,194.309)">
        <path d="M0,4.2C-0.229,4.123 -0.382,4.047 -0.535,4.047C-0.535,3.589 -1.833,3.131 -1.909,3.054C-2.749,1.833 -2.749,0.687 -2.749,0C-1.909,1.909 -1.604,3.589 1.527,3.589L1.527,4.047C0.992,4.047 0.458,4.123 0,4.2" style="fill:white;"/>
    </g>
    <g transform="matrix(7.05557,0,0,7.05557,505.388,165.757)">
        <path d="M0,8.094C0,6.643 0.229,6.185 0.458,5.498C0.611,5.269 0.84,5.04 1.069,4.887C1.299,3.207 2.673,1.145 3.666,0.153C3.971,0.076 4.276,0 4.658,0C4.582,0.153 4.582,0.382 4.582,0.611L4.353,0.611C4.124,1.221 3.895,1.832 3.666,2.443L3.437,2.443C2.825,3.436 2.291,4.428 1.757,5.421L1.451,5.421C1.299,5.956 0.84,6.109 0.84,7.101L0.534,7.101C0.306,7.407 0.153,7.712 0,8.094" style="fill:white;"/>
    </g>
    <g transform="matrix(7.05557,0,0,7.05557,590.517,211.011)">
        <path d="M0,1.68C-0.534,0.84 -1.146,0.458 -1.527,0C-1.146,0 -0.916,0.229 -0.382,0.763C0.534,0.84 1.451,0.993 2.367,1.146L2.367,1.527C1.909,1.451 1.451,1.451 0.993,1.451L0.993,1.68L0,1.68" style="fill:white;"/>
    </g>
    <g transform="matrix(7.05557,0,0,7.05557,523.709,177.603)">
        <path d="M0,6.186C-0.152,6.033 -0.229,5.957 -0.306,5.881C0.382,3.513 1.756,1.91 2.673,0C2.596,0.917 2.52,1.91 2.52,2.902C2.215,3.437 1.909,3.971 1.604,4.506C1.069,5.04 0.534,5.575 0,6.186" style="fill:white;"/>
    </g>
    <g transform="matrix(2.77859,6.48541,6.48541,-2.77859,415.713,215.398)">
        <path d="M0.605,-0.306C0.394,-0.216 0.214,-0.056 0.103,0.075C0.224,0.355 0.414,0.607 0.605,0.857L0.745,0.797C0.665,0.416 0.586,0.035 0.605,-0.306" style="fill:white;"/>
    </g>
    <g transform="matrix(7.05557,0,0,7.05557,369.072,174.374)">
        <path d="M0,6.109C-0.306,5.956 -0.534,5.88 -0.764,5.804L-0.764,5.574C-2.901,4.658 -2.597,2.596 -2.443,1.527C-2.291,1.222 -2.138,0.916 -1.985,0.687C-0.076,0.382 1.527,0 3.284,2.367C3.36,2.749 3.513,3.207 3.666,3.666C3.513,4.124 3.36,4.582 3.284,5.04C3.055,5.269 2.825,5.574 2.673,5.88C1.757,5.956 0.84,6.033 0,6.109" style="fill:white;"/>
    </g>
    <g transform="matrix(7.05557,0,0,7.05557,491.917,153.897)">
        <path d="M0,8.706C-0.534,7.942 -0.534,7.866 -0.534,7.255C0.382,5.575 1.604,2.826 2.749,1.681C3.131,0.841 3.437,0 4.582,0.535C4.582,1.375 1.527,6.338 1.375,6.415C0.917,7.179 0.458,7.942 0,8.706" style="fill:white;"/>
    </g>
    <g transform="matrix(7.05557,0,0,7.05557,634.696,210.476)">
        <path d="M0,0.687C-0.152,0.458 -0.229,0.229 -0.305,0C0.077,0 0.229,0.534 0.229,0.687L0,0.687" style="fill:white;"/>
    </g>
    <g transform="matrix(7.05557,0,0,7.05557,594.83,199.155)">
        <path d="M0,2.062C-0.764,1.146 -2.139,0.306 -1.833,0C-1.375,0.306 -1.069,0.993 -0.229,1.222C-0.153,1.299 -0.077,1.375 0,1.528C0.687,1.528 1.45,1.528 2.214,1.604C2.138,1.681 2.062,1.757 2.062,1.91C1.374,1.91 0.687,1.986 0,2.062" style="fill:white;"/>
    </g>
    <g transform="matrix(7.05557,0,0,7.05557,198.278,182.995)">
        <path d="M0,4.2C-0.076,4.047 -0.153,3.894 -0.153,3.818C-0.153,1.985 -0.229,1.451 0.992,1.069L0.992,0.763C1.222,0.534 1.298,0 2.138,0.229C1.374,1.756 0.458,2.291 0,4.2" style="fill:white;"/>
    </g>
    <g transform="matrix(7.05557,0,0,7.05557,430.498,188.917)">
        <path d="M0,3.055C-0.535,2.903 -1.069,2.75 -1.604,2.673C-1.604,1.528 -0.917,0.917 -0.611,0.153C0.458,0.077 1.527,0 2.673,0C2.596,0.764 1.68,1.757 1.146,2.903C0.764,2.903 0.382,2.979 0,3.055" style="fill:white;"/>
    </g>
    <g transform="matrix(6.44939,2.86119,2.86119,-6.44939,450.339,208.317)">
        <path d="M0.315,-0.111C-0.026,0.657 0.051,0.858 0.106,1.301L0.315,1.393C0.54,1.075 0.796,0.688 1.052,0.299C0.772,0.175 0.493,0.051 0.315,-0.111" style="fill:white;"/>
    </g>
    <g transform="matrix(7.05557,0,0,7.05557,156.247,185.147)">
        <path d="M0,3.437C-0.382,1.68 -0.306,2.062 1.527,2.291L1.527,1.222C0.993,1.146 0.458,1.069 -0.076,1.069C-0.076,0.687 -0.076,0.306 0,0C0.458,0 1.909,0.687 2.979,1.451C2.979,2.215 2.597,2.826 2.291,3.284C1.527,3.284 0.764,3.36 0,3.437" style="fill:white;"/>
    </g>
    <g transform="matrix(7.05557,0,0,7.05557,642.779,196.461)">
        <path d="M0,1.604C-0.306,0.535 -1.374,0.229 -1.68,0.153C-1.298,0.153 0,0 0,1.604" style="fill:white;"/>
    </g>
    <g transform="matrix(7.05557,0,0,7.05557,474.141,149.055)">
        <path d="M0,8.094C-0.687,7.407 0,6.719 0.382,6.338C1.374,4.123 2.673,1.832 3.741,0C4.047,0 4.429,0 4.811,0.076C4.582,0.534 4.353,1.069 4.123,1.603C3.207,3.054 2.291,4.581 1.45,6.109C0.916,6.719 0.458,7.407 0,8.094" style="fill:white;"/>
    </g>
    <g transform="matrix(0,-7.05557,-7.05557,0,942.893,207.242)">
        <path d="M0.153,0.611L0.535,0.611C0.611,0.535 0.611,0.459 0.611,0.306C0.535,0.153 0.459,0.001 0.306,-0.153C0.306,0.153 0.23,0.382 0.153,0.611" style="fill:white;"/>
    </g>
    <g transform="matrix(7.05557,0,0,7.05557,599.136,192.157)">
        <path d="M0,1.756C-1.222,1.298 -1.833,0.381 -2.214,0.305L-2.214,0C-1.68,0 -1.222,0.534 -0.61,0.992C0.458,1.145 2.749,1.221 2.291,1.679C1.527,1.679 0.764,1.679 0,1.756" style="fill:white;"/>
    </g>
    <g transform="matrix(6.7173,2.15846,2.15846,-6.7173,677.061,200.206)">
        <path d="M0.32,0.098C-0.254,0.635 -0.731,1.124 -1.21,1.612C-0.724,1.848 -0.239,2.084 0.32,2.344C0.361,1.715 0.426,1.015 0.564,0.337C0.418,0.29 0.368,0.195 0.32,0.098" style="fill:white;"/>
    </g>
    <g transform="matrix(3.50301,6.12454,6.12454,-3.50301,778.838,196.364)">
        <path d="M0.229,-0.089C0.126,-0.117 0.021,-0.145 -0.045,-0.107C0.001,0.129 0.116,0.328 0.229,0.527L0.495,0.375L0.229,-0.089" style="fill:white;"/>
    </g>
    <g transform="matrix(7.05557,0,0,7.05557,460.133,131.273)">
        <path d="M0,9.163C-0.077,8.629 -0.153,8.094 -0.229,7.636C-0.153,7.254 0,6.872 0.152,6.491L0.382,6.491C0.764,5.345 2.978,0 4.429,1.451C3.895,2.672 2.978,4.429 2.062,5.65C1.756,6.262 0.764,8.782 0,9.163" style="fill:white;"/>
    </g>
    <g transform="matrix(7.05557,0,0,7.05557,614.225,180.836)">
        <path d="M0,1.986C-0.687,1.833 -1.375,1.757 -1.985,1.68L-1.985,1.451L-2.367,1.451C-2.367,0.917 -3.589,0.611 -3.666,0.611L-3.666,0C-3.284,0.153 -2.749,0.306 -2.444,0.917C-1.375,0.993 -0.229,1.069 0.916,1.146C0.84,1.375 0.84,1.604 0.84,1.91C0.534,1.91 0.229,1.91 0,1.986" style="fill:white;"/>
    </g>
    <g transform="matrix(7.05557,0,0,7.05557,962.828,186.764)">
        <path d="M0,0.764C0,0.382 -1.681,0.306 -2.063,0.306L-2.063,0.077C-1.604,0 -1.146,0 -0.687,0C-0.229,0.229 0.229,0.458 0.763,0.688C0.458,0.688 0.229,0.688 0,0.764" style="fill:white;"/>
    </g>
    <g transform="matrix(7.05557,0,0,7.05557,288.794,185.151)">
        <path d="M0,0.458C-0.382,0.076 -0.152,0 -0.152,0C-0.152,0.153 -0.076,0.305 0,0.458" style="fill:white;"/>
    </g>
    <g transform="matrix(7.05557,0,0,7.05557,423.491,146.352)">
        <path d="M0,5.27C-0.306,4.735 -1.069,3.972 -1.451,3.819C-1.451,3.361 -1.833,3.361 -1.985,3.208C-2.215,2.826 -2.443,2.444 -2.673,2.139C-2.825,2.062 -2.979,1.986 -3.055,1.986C-3.055,1.528 -3.665,1.299 -3.971,1.07C-4.2,0.841 -4.353,0.612 -4.506,0.383C-4.506,0.23 -4.506,0.077 -4.429,0L-4.047,0C-3.207,0.917 -2.367,1.91 -1.527,2.903C-1.527,2.903 0.229,4.048 0.229,5.041C0.152,5.117 0.076,5.193 0,5.27" style="fill:white;"/>
    </g>
    <g transform="matrix(7.05557,0,0,7.05557,315.735,180.299)">
        <path d="M0,0.382C-0.229,0.153 -0.382,0 -0.535,-0.153L1.909,-0.153C1.222,0.535 0.61,0.382 0,0.382" style="fill:white;"/>
    </g>
    <g transform="matrix(7.05557,0,0,7.05557,30.1703,105.41)">
        <path d="M0,10.92C0,9.545 -0.305,5.803 0.077,5.422C0,5.345 -0.076,5.269 -0.076,5.269C-0.076,3.742 0.306,0.84 -0.076,0.076C0.306,0 0.687,0 1.146,0C1.146,3.131 1.146,6.262 1.223,9.393C1.146,9.698 1.069,10.003 0.993,10.309C0.611,10.462 0.306,10.691 0,10.92" style="fill:white;"/>
    </g>
    <g transform="matrix(7.05557,0,0,7.05557,345.363,179.225)">
        <path d="M0,0.458L0,0L0.306,0C0.153,0.152 0.077,0.305 0,0.458" style="fill:white;"/>
    </g>
    <g transform="matrix(7.05557,0,0,7.05557,47.4163,132.344)">
        <path d="M0,6.873C-0.382,4.659 -0.153,1.452 0.229,0C0.84,0 1.298,0.535 1.526,1.375C1.374,2.826 1.222,4.277 1.068,5.804C0.916,6.033 0.764,6.339 0.687,6.644C0.458,6.721 0.229,6.797 0,6.873" style="fill:white;"/>
    </g>
    <g transform="matrix(7.05557,0,0,7.05557,176.187,159.831)">
        <path d="M0,2.825C-0.841,2.672 -1.681,2.519 -2.521,2.367C-2.979,2.138 -3.437,1.908 -3.896,1.679L-3.896,1.45C-4.277,1.45 -4.659,0.84 -4.659,0.84C-4.659,0.534 -4.659,0.229 -4.582,0C-3.896,0 -3.59,0.076 -2.597,0.687L1.068,1.374C3.817,1.298 6.567,1.221 9.316,1.221C9.316,1.221 9.393,0.916 9.698,1.221C11.072,1.221 13.745,0.381 14.891,2.748C9.927,2.748 4.963,2.748 0,2.825" style="fill:white;"/>
    </g>
    <g transform="matrix(7.05557,0,0,7.05557,610.994,171.136)">
        <path d="M0,1.146C-0.535,1.07 -1.069,0.994 -1.527,0.917L-1.527,0.688L-1.986,0.688C-1.986,0 6.49,0.306 7.865,0.306C7.636,0.459 7.407,0.688 7.178,0.917C4.734,0.994 2.367,1.07 0,1.146" style="fill:white;"/>
    </g>
    <g transform="matrix(5.78299,-4.04204,-4.04204,-5.78299,305.179,175.813)">
        <path d="M-0.253,-0.04C-0.353,0.216 -0.391,0.429 -0.429,0.641L-0.253,0.892C-0.154,0.636 -0.053,0.379 0.048,0.123C-0.059,0.103 -0.166,0.085 -0.253,-0.04" style="fill:white;"/>
    </g>
    <g transform="matrix(7.05557,0,0,7.05557,397.632,171.678)">
        <path d="M0,0.764C-0.229,0.458 -0.459,0.229 -0.611,0C-0.459,0.153 0,0.306 0,0.764" style="fill:white;"/>
    </g>
    <g transform="matrix(7.05557,0,0,7.05557,444.506,131.807)">
        <path d="M0,6.415C-0.229,6.186 -0.382,5.957 -0.535,5.728C-0.535,4.659 0.61,3.207 1.146,2.215C2.597,1.528 0.992,0 3.665,0C2.901,1.91 1.756,3.742 0.382,5.651C0.229,5.88 0.076,6.109 0,6.415" style="fill:white;"/>
    </g>
    <g transform="matrix(1.58626,6.87494,6.87494,-1.58626,296.76,165.617)">
        <path d="M2.003,2.141C0.137,-0.172 -1.128,0.12 -3.068,0.881C-1.179,0.916 0.903,1.454 2.003,4.178C2.06,4.087 2.118,3.995 2.266,3.961C2.129,3.367 2.066,2.753 2.003,2.141" style="fill:white;"/>
    </g>
    <g transform="matrix(6.69331,2.23175,2.23175,-6.69331,61.8935,174.305)">
        <path d="M0.567,0.018C-0.302,0.452 -0.35,3.253 -0.254,3.447C-0.036,3.519 0.253,3.616 0.567,3.641C0.784,2.746 1.002,1.853 1.316,0.911C1.002,0.645 0.785,0.332 0.567,0.018" style="fill:white;"/>
    </g>
    <g transform="matrix(7.05557,0,0,7.05557,742.459,113.486)">
        <path d="M0,8.706C-0.152,8.63 -0.306,8.554 -0.458,8.477L-0.458,7.637C-0.152,7.102 0.152,6.568 0.458,6.034C1.604,3.972 3.283,1.833 4.2,0L4.582,0L4.582,1.146C3.131,2.597 1.909,5.728 0.687,7.79C0.229,8.019 0.458,8.477 0,8.706" style="fill:white;"/>
    </g>
    <g transform="matrix(5.64224,4.2363,4.2363,-5.64224,592.027,172.003)">
        <path d="M0.092,0.031C-0.015,0.046 -0.123,0.061 -0.229,0.076C-0.152,0.229 -0.031,0.32 0.092,0.412L0.275,0.168L0.092,0.031" style="fill:white;"/>
    </g>
    <g transform="matrix(7.05557,0,0,7.05557,296.876,143.122)">
        <path d="M0,3.971C-0.687,2.062 -1.527,1.222 -0.687,0C-0.687,1.375 -0.611,2.138 0.229,3.819C0.152,3.819 0.076,3.895 0,3.971" style="fill:white;"/>
    </g>
    <g transform="matrix(7.05557,0,0,7.05557,321.661,129.116)">
        <path d="M0,5.651C-0.229,5.575 -0.382,5.498 -0.535,5.422L-0.535,5.193C-2.215,4.353 -2.521,2.978 -2.673,2.291C-2.215,0 -1.985,0.535 0.152,0.306C1.222,0.993 3.131,0.84 3.131,3.818C2.978,4.124 2.825,4.505 2.673,4.887C2.443,4.964 2.214,5.04 2.062,5.116C1.985,5.193 1.909,5.269 1.909,5.422C1.222,5.498 0.61,5.575 0,5.651" style="fill:white;"/>
    </g>
    <g transform="matrix(7.05557,0,0,7.05557,381.467,165.755)">
        <path d="M0,0.229C-0.077,0.153 -0.153,0.076 -0.229,0.076C-0.077,0 0.076,0 0.229,0C0.152,0.076 0.076,0.153 0,0.229" style="fill:white;"/>
    </g>
    <g transform="matrix(7.05557,0,0,7.05557,135.239,153.903)">
        <path d="M0,1.756C-0.153,1.45 -0.306,1.145 -0.382,0.916C-0.229,0.61 0,0.305 0.229,0L0.916,0C0.534,0.61 0.229,0.534 0.229,1.756L0,1.756" style="fill:white;"/>
    </g>
    <g transform="matrix(7.05557,0,0,7.05557,345.907,123.727)">
        <path d="M0,5.88C-0.077,5.804 -0.077,5.727 -0.077,5.651C0.229,5.651 0.229,4.734 0.229,3.284C-1.223,0.306 -3.513,0.458 -5.575,0.688C-6.186,1.146 -6.797,1.604 -7.331,2.138C-7.331,0.917 -4.734,0 -3.437,0C-2.444,0.382 -0.459,0.917 0.534,2.902C0.534,3.36 0.687,5.193 0,5.88" style="fill:white;"/>
    </g>
    <g transform="matrix(7.05557,0,0,7.05557,197.74,139.348)">
        <path d="M0,2.979C-2.215,2.979 -4.354,2.75 -5.881,2.292C-6.187,2.062 -6.491,1.833 -6.721,1.604C-6.721,0.764 -6.721,0.382 -6.491,0L-5.117,0L-5.117,0.382C-4.582,0.612 -4.048,0.841 -3.437,1.146C0.84,1.07 5.116,0.993 9.469,0.917L9.469,2.521C6.262,2.673 3.131,2.826 0,2.979" style="fill:white;"/>
    </g>
    <g transform="matrix(7.05557,0,0,7.05557,591.591,77.9211)">
        <path d="M0,11.609C0,11.074 -1.68,11.303 -2.062,11.303C-2.214,11.227 -2.367,11.151 -2.52,11.074C-2.672,11.151 -2.749,11.227 -2.825,11.38C-2.978,9.47 -3.589,8.401 -3.894,7.332C-4.429,6.798 -4.353,6.339 -4.505,5.805C-4.505,2.369 -7.941,2.751 -9.851,3.132C-10.232,3.514 -10.614,3.896 -10.919,4.277C-11.225,4.965 -11.53,5.652 -11.76,6.416C-11.76,6.95 -11.836,7.714 -10.996,9.012C-10.996,9.165 -10.996,9.394 -10.919,9.623C-10.461,9.623 -10.232,10.158 -10.079,10.463C-11.606,9.852 -11.454,9.088 -11.606,8.554C-11.76,8.249 -11.912,7.943 -12.064,7.714C-12.37,7.638 -12.676,7.562 -12.905,7.485C-12.905,6.339 -12.905,5.271 -12.829,4.201C-13.21,4.125 -13.592,4.048 -13.897,3.972C-14.203,4.277 -14.509,4.659 -14.737,5.041C-15.807,5.118 -16.876,5.194 -17.945,5.271C-18.021,4.965 -18.098,4.659 -18.098,4.43C-18.174,4.354 -18.25,4.277 -18.327,4.277C-19.625,4.201 -20.847,4.201 -22.068,4.201C-22.374,3.896 -22.604,3.667 -22.832,3.438C-23.596,3.438 -24.359,3.438 -25.047,3.514C-25.199,3.896 -25.353,4.277 -25.505,4.659C-26.116,4.659 -26.727,4.659 -27.262,4.736C-27.49,5.576 -27.72,6.416 -27.872,7.332C-28.713,7.409 -29.553,7.485 -30.393,7.638C-30.469,7.485 -30.469,7.332 -30.469,7.256C-30.851,7.256 -31.156,7.256 -31.462,7.332C-31.538,7.409 -31.538,7.485 -31.538,7.562C-31.538,6.645 -30.851,6.187 -30.851,5.729C-31.92,5.576 -32.226,4.889 -32.148,4.812L-29.705,4.812C-29.705,4.583 -29.629,4.354 -29.553,4.201C-31.309,3.514 -32.836,3.972 -33.829,3.743C-34.745,2.827 -36.044,1.987 -36.272,1.91C-36.884,1.987 -37.494,2.139 -38.105,2.292C-39.251,1.147 -42.229,0.536 -42.458,-0.304C-41.847,-0.304 -41.694,-0.381 -41.084,-0.075C-35.891,0.231 -30.163,0.994 -24.665,1.452C-24.283,1.834 -23.978,1.834 -23.443,1.91C-22.832,2.216 -21.916,3.056 -20.618,3.667C-20.541,3.59 -17.334,2.445 -16.723,3.667L-15.73,3.667C-15.73,2.216 -16.8,1.757 -17.258,2.674C-18.556,2.674 -19.854,2.751 -21.076,2.827C-22.068,1.605 -23.291,0.994 -23.52,0.46C-22.604,0.536 -21.687,0.612 -20.694,0.765C-20.694,0.536 -20.618,0.307 -20.541,0.154C-19.549,0.154 -17.868,-0.075 -16.723,1.07C-11.912,1.07 -6.49,0.994 -0.992,0.536C1.909,0.612 4.812,0.689 7.713,0.765C8.019,1.07 8.324,1.376 8.63,1.757C6.568,1.605 4.582,1.528 2.597,1.452C2.291,2.063 1.451,2.063 1.299,2.063C1.146,1.834 0.993,1.681 0.917,1.528C-0.458,1.528 -3.741,1.528 -4.276,2.063C-4.429,2.521 -4.505,2.98 -4.581,3.514C-2.52,3.514 0.229,3.514 2.597,4.201C2.597,4.583 2.597,4.965 2.673,5.423C3.742,5.423 4.812,5.5 5.881,5.576C5.957,5.423 6.109,5.271 6.263,5.118C6.491,5.347 6.797,5.576 7.103,5.881C8.4,5.958 9.317,5.805 11.073,6.492L11.073,6.95C11.455,7.332 11.99,7.485 12.524,7.485C12.524,7.867 12.524,8.249 12.601,8.707C10.921,9.547 11.149,9.165 11.149,11.151C10.386,10.998 9.622,10.845 8.858,10.769C8.63,10.922 8.477,11.074 8.324,11.303C7.026,11.303 5.805,11.303 4.582,11.38C4.277,11.074 3.972,11.074 3.666,11.074C2.75,11.99 0.611,10.998 0,11.609" style="fill:white;"/>
    </g>
    <g transform="matrix(7.05557,0,0,7.05557,735.451,114.032)">
        <path d="M0,6.491C-0.152,6.414 -0.305,6.338 -0.382,6.262C-0.382,4.429 1.604,2.291 2.444,0.763C2.749,0.458 3.055,0.229 3.36,0L3.818,0.229C2.979,1.603 1.681,4.276 0.535,5.651C0.535,6.033 0.306,6.185 0,6.491" style="fill:white;"/>
    </g>
    <g transform="matrix(7.05557,0,0,7.05557,118.53,85.4741)">
        <path d="M0,10.309C-0.382,10.156 -0.763,10.004 -1.146,9.927C-1.222,9.851 -1.222,9.774 -1.222,9.698C-2.443,9.393 -3.665,9.163 -4.811,8.934C-5.192,7.713 -5.345,6.033 -5.65,5.575C-6.566,5.498 -7.483,5.422 -8.399,5.346C-9.011,3.971 -10.003,2.52 -10.003,1.909C-12.523,1.909 -14.127,1.374 -15.73,1.222C-15.883,0.993 -16.036,0.84 -16.112,0.687C-16.036,0.535 -15.96,0.458 -15.883,0.382C-14.661,0.305 -13.363,0.229 -12.065,0.229C-11.912,0.153 -11.76,0.076 -11.53,0C-10.69,0.229 -9.851,0.535 -9.011,0.84C-8.094,1.298 -7.178,2.062 -5.421,2.596C-4.734,3.207 -4.275,3.589 -3.207,5.269C-3.207,6.033 -3.131,6.873 -3.054,7.713C-2.749,8.4 -1.068,8.934 0.229,10.233C0.153,10.233 0.077,10.233 0,10.309" style="fill:white;"/>
    </g>
    <g transform="matrix(7.05557,0,0,7.05557,699.354,146.898)">
        <path d="M0,1.527C-0.152,1.145 -0.534,0.992 -0.61,0.992C-0.687,0.687 -0.764,0.381 -0.764,0.152C-0.61,0.076 -0.382,0 -0.152,0C0.382,0.381 0.229,0.992 0.229,1.527L0,1.527" style="fill:white;"/>
    </g>
    <g transform="matrix(7.05557,0,0,7.05557,675.645,146.357)">
        <path d="M0,1.451L0,1.145L0.229,1.145C0.229,0.764 0.229,0.458 0.306,0.153C0.459,0.076 0.611,0 0.764,0C0.687,0.458 0.687,0.916 0.687,1.375C0.459,1.375 0.229,1.375 0,1.451" style="fill:white;"/>
    </g>
    <g transform="matrix(5.42072,4.51628,4.51628,-5.42072,429.815,150.135)">
        <path d="M0.338,-0.016C-0.131,0.189 -0.298,0.15 -0.278,0.365C-0.093,0.62 0.094,0.874 0.338,1.178C0.377,1.011 0.474,0.893 0.621,0.717C0.494,0.512 0.416,0.248 0.338,-0.016" style="fill:white;"/>
    </g>
    <g transform="matrix(1.4236,6.91046,6.91046,-1.4236,420.532,132.448)">
        <path d="M2.645,0.039C1.833,-0.495 0.7,0.44 0.551,0.47C0.467,1.579 0.091,3.918 2.645,2.69C2.315,2.602 1.985,2.514 1.655,2.427C1.393,1.155 1.479,0.435 2.645,0.039" style="fill:white;"/>
    </g>
    <g transform="matrix(5.49404,4.42681,4.42681,-5.49404,135.805,145.198)">
        <path d="M1.149,0.028C-0.463,0.201 -0.524,1.132 -0.741,1.643C-0.41,2.204 -0.02,3.304 1.149,3.558C0.714,1.541 -0.206,2.074 1.231,0.29C1.172,0.242 1.16,0.135 1.149,0.028" style="fill:white;"/>
    </g>
    <g transform="matrix(7.05557,0,0,7.05557,581.359,124.803)">
        <path d="M0,3.437C-1.604,2.368 -1.299,0.917 -0.917,0.153C-0.84,0.153 -0.687,0.229 -0.535,0.306C-0.611,0.611 -0.687,0.993 -0.687,1.375C-0.611,1.375 -0.535,1.375 -0.382,1.451C-0.382,1.528 -0.382,1.604 -0.306,1.757C0.076,1.68 0.534,1.604 0.992,1.528C0.84,0.993 0.764,0.458 0.687,0C1.604,0 1.68,0.458 2.138,2.062C1.756,3.284 1.069,3.36 0,3.437" style="fill:rgb(35,31,32);"/>
    </g>
    <g transform="matrix(7.05557,0,0,7.05557,616.382,123.724)">
        <path d="M0,3.437C-0.382,3.208 -0.764,3.055 -1.069,2.902C-1.909,1.833 -2.063,1.604 -2.139,0.993C-1.604,0.458 -2.215,0.84 -1.604,0.535C-1.299,0.84 -1.299,1.146 -1.299,1.452C-0.841,1.375 -0.382,1.299 0.076,1.299C0.152,1.07 0.229,0.84 0.382,0.688C0.229,0.611 0.076,0.535 0,0.535C0.076,0.306 0.152,0.153 0.229,0C0.61,0.153 0.992,0.382 1.374,0.611C1.604,1.375 1.756,2.444 1.068,3.284C0.687,3.284 0.305,3.36 0,3.437" style="fill:rgb(35,31,32);"/>
    </g>
    <g transform="matrix(7.05557,0,0,7.05557,524.246,95.1741)">
        <path d="M0,7.025C-0.229,6.72 -0.458,6.414 -0.687,6.185L-1.374,6.185C-1.527,5.574 -1.68,4.963 -1.757,4.429C-1.68,3.818 -1.527,3.207 -1.374,2.672C-1.298,2.596 -1.146,2.52 -0.993,2.443C-0.993,0.916 2.901,0 3.895,2.062C1.604,0.916 0.687,1.909 -0.534,3.13C-0.687,3.359 -0.84,3.589 -0.916,3.894C-0.916,4.658 -0.916,4.887 -0.306,6.261C-0.152,6.414 0,6.643 0.229,6.873C0.152,6.873 0.076,6.949 0,7.025" style="fill:white;"/>
    </g>
    <g transform="matrix(-4.98904,-4.98904,-4.98904,4.98904,649.649,142.479)">
        <path d="M0.138,0.591L0.353,0.591C0.354,0.376 0.354,0.159 0.299,-0.003C0.138,0.051 -0.025,0.105 -0.24,0.213L0.138,0.591" style="fill:rgb(35,31,32);"/>
    </g>
    <g transform="matrix(7.05557,0,0,7.05557,982.224,137.733)">
        <path d="M0,0.993C-0.611,0.382 -1.222,0.688 -1.451,0.688C-0.841,0.611 -0.382,0 0.381,0.764C0.229,0.841 0.076,0.917 0,0.993" style="fill:white;"/>
    </g>
    <g transform="matrix(6.31069,-3.15535,-3.15535,-6.31069,162.33,134.751)">
        <path d="M-0.106,0.007C-0.14,0.109 -0.208,0.143 -0.277,0.178L-0.106,0.519C-0.038,0.485 0.064,0.349 0.167,0.212C0.064,0.178 -0.038,0.143 -0.106,0.007" style="fill:white;"/>
    </g>
    <g transform="matrix(7.05557,0,0,7.05557,251.077,79.0063)">
        <path d="M0,7.942C-0.229,7.866 -0.382,7.866 -0.534,7.866C-0.534,6.491 0.382,5.422 0.611,4.124C-1.833,4.124 -0.534,4.353 -1.909,6.262C-1.985,6.415 -1.985,6.644 -1.985,6.873C-2.138,6.873 -2.291,6.949 -2.367,7.026C-2.367,7.102 -2.367,7.178 -2.291,7.255C-2.597,7.255 -2.52,7.484 -2.52,7.866L-3.437,7.866C-3.437,6.491 -2.673,5.422 -2.367,4.2C-3.36,2.749 -3.895,5.04 -3.971,5.804C-4.658,5.804 -4.658,6.949 -5.04,7.713C-5.422,7.713 -5.804,7.79 -6.186,7.866C-6.415,7.178 -6.644,6.491 -6.797,5.88C-7.483,5.804 -8.095,5.728 -8.705,5.728C-10.156,5.728 -11.607,5.728 -12.982,5.804C-13.211,4.964 -13.364,4.124 -13.517,3.36C-15.044,3.36 -14.586,1.375 -14.586,1.375L-13.44,1.833C-13.44,1.909 -13.44,1.985 -13.364,2.138C-13.135,2.138 -12.905,2.215 -12.677,2.291L-12.677,2.52L-12.371,2.52C-12.371,2.826 -11.531,3.971 -10.31,3.971C-10.31,3.513 -9.087,3.513 -8.4,3.36C-9.164,3.208 -9.928,3.055 -10.691,2.979C-11.378,1.756 -13.287,0.229 -14.051,0.229L-14.051,0C-7.865,0.153 -1.68,0.306 4.582,0.535C5.04,0.611 6.415,0.993 7.561,1.833C7.942,1.909 8.706,1.68 9.164,2.673C8.477,2.749 7.865,2.902 7.255,3.055C7.178,3.437 7.178,3.818 7.178,4.276C6.797,4.2 6.415,4.124 6.033,4.124C5.956,4.353 5.88,4.658 5.804,4.964C5.575,4.964 5.422,5.04 5.27,5.117L5.27,5.422C5.116,5.422 5.04,5.422 4.964,5.499L4.964,5.804C4.734,5.804 4.582,5.88 4.43,5.957L4.43,6.262C3.895,6.262 3.207,7.178 2.825,7.408L2.825,7.713C2.673,7.637 2.597,7.56 2.521,7.484C2.979,6.491 3.513,5.575 4.048,4.658C3.971,4.429 3.895,4.2 3.895,4.047L2.521,4.047C2.062,4.811 1.604,5.651 1.146,6.491C0.917,6.949 0.764,7.408 0.611,7.866C0.382,7.866 0.153,7.866 0,7.942" style="fill:white;"/>
    </g>
    <g transform="matrix(7.05557,0,0,7.05557,525.859,131.274)">
        <path d="M0,0.534C-0.152,0.152 -0.305,0 -0.076,0C-0.076,0.152 -0.076,0.305 0,0.534" style="fill:white;"/>
    </g>
    <g transform="matrix(7.05557,0,0,7.05557,346.445,130.731)">
        <path d="M0,0.382C-0.153,0.229 -0.229,0.153 -0.306,0.077C-0.229,0 -0.153,0 0,0L0,0.382" style="fill:white;"/>
    </g>
    <g transform="matrix(6.31276,-3.15121,-3.15121,-6.31276,663.137,131.047)">
        <path d="M-0.136,0.032C-0.238,0.169 -0.273,0.272 -0.307,0.373L-0.136,0.715L0.41,0.442C0.205,0.374 0.035,0.203 -0.136,0.032" style="fill:rgb(35,31,32);"/>
    </g>
    <g transform="matrix(7.05557,0,0,7.05557,831.894,111.87)">
        <path d="M0,2.75C-0.229,2.597 -0.382,2.444 -0.534,2.368C-0.534,2.139 -0.458,1.91 -0.382,1.757C-0.84,1.604 -1.298,1.452 -1.756,1.299C-1.832,0.993 -1.909,0.764 -1.985,0.535C-1.45,0 -0.61,0.306 0.535,0.841C0.687,0.993 0.917,1.146 1.146,1.299L1.146,1.833C0.917,2.063 0.687,2.368 0.535,2.673C0.306,2.673 0.153,2.673 0,2.75" style="fill:rgb(35,31,32);"/>
    </g>
    <g transform="matrix(7.05557,0,0,7.05557,341.594,121.574)">
        <path d="M0,1.069C-0.764,0.305 -1.833,0 -0.306,0.458C-0.229,0.611 -0.152,0.84 0,1.069" style="fill:white;"/>
    </g>
    <g transform="matrix(7.05557,0,0,7.05557,105.067,81.1603)">
        <path d="M0,6.186C-0.535,4.964 -0.993,3.742 -1.451,2.52C-3.132,1.757 -4.735,1.222 -5.88,0.993C-5.88,0.611 -6.415,0.458 -6.645,0.306C-6.645,0.153 -6.645,0.077 -6.567,0C-4.888,0.153 -2.673,0.153 -0.306,1.069C1.45,0.916 3.207,0.84 5.04,0.764C5.116,1.604 5.269,2.444 5.421,3.284C6.185,3.284 6.796,3.513 7.025,4.964C6.796,5.117 6.566,5.269 6.414,5.499C5.956,5.499 5.498,5.575 5.116,5.651C4.353,5.346 4.047,5.117 3.741,4.659C2.901,4.659 2.138,4.735 1.374,4.811C1.298,5.193 1.298,5.575 1.298,6.033C0.84,6.033 0.382,6.109 0,6.186" style="fill:white;"/>
    </g>
    <g transform="matrix(7.05557,0,0,7.05557,524.246,111.875)">
        <path d="M0,1.68C0,0.229 0.916,0 2.215,0C0.993,0.611 0.84,0.534 0,1.68" style="fill:white;"/>
    </g>
    <g transform="matrix(6.5508,2.6207,2.6207,-6.5508,706.051,120.122)">
        <path d="M0.698,-0.189C0.187,0.265 -0.096,0.151 -0.621,0.435C-0.592,2.009 -0.125,2.279 0.698,3.513C1.082,3.583 1.563,3.612 2.045,3.64C1.564,2.378 1.081,1.115 0.698,-0.189" style="fill:white;"/>
    </g>
    <g transform="matrix(7.05557,0,0,7.05557,844.289,95.7103)">
        <path d="M0,3.742L-1.069,2.673L-1.451,2.673C-1.527,2.52 -1.604,2.367 -1.68,2.291C-1.909,2.138 -2.139,1.986 -2.367,1.909C-1.757,0 -0.916,1.145 0.84,1.986C0.84,2.825 0.458,3.131 0,3.742" style="fill:rgb(35,31,32);"/>
    </g>
    <g transform="matrix(7.05557,0,0,7.05557,141.165,105.95)">
        <path d="M0,1.756C-0.84,1.756 -0.84,0.152 -0.84,0C-0.382,0 -0.229,0.229 0.152,0.458C0.458,0.305 0.84,0.152 1.222,0.076C1.222,0.458 1.068,1.298 0.687,1.68C0.458,1.68 0.229,1.68 0,1.756" style="fill:rgb(35,31,32);"/>
    </g>
    <g transform="matrix(0,-7.05557,-7.05557,0,428.61,113.763)">
        <path d="M0.344,1.413L1.031,1.413C1.184,0.649 1.413,0.955 0.802,-0.344C0.726,-0.268 0.65,-0.268 0.497,-0.268C0.497,0.344 0.421,0.878 0.344,1.413" style="fill:white;"/>
    </g>
    <g transform="matrix(7.05557,0,0,7.05557,689.115,97.331)">
        <path d="M0,1.985C-0.382,1.756 -0.764,1.603 -1.068,1.45C-0.764,1.145 1.069,0 1.909,0.381C1.375,0.763 0.841,1.221 0.306,1.679L0.306,1.985L0,1.985" style="fill:white;"/>
    </g>
    <g transform="matrix(4.10056,5.74164,5.74164,-4.10056,794.89,83.3437)">
        <path d="M2.673,-1.376C2.548,-1.287 2.487,-1.243 2.468,-1.136C2.752,0.444 1.474,3.515 2.673,5.194C2.956,4.802 3.241,4.412 3.587,3.978C4.501,1.448 3.729,0.497 2.673,-1.376" style="fill:white;"/>
    </g>
</svg>
